#N canvas 827 239 527 327 12;
#X obj 276 112 inlet;
#X obj 276 255 bng 25 250 50 0 empty empty empty 17 7 0 10 #e4e4e4 #4d4d4d #373737;
#X obj 510 117 inlet;
#X obj 561 117 inlet;
#X obj 619 115 inlet;
#X obj 670 115 inlet;
#X floatatom 358 340 5 0 0 0 - - - 12;
#X floatatom 419 340 5 0 0 0 - - - 12;
#X floatatom 484 341 5 0 0 0 - - - 12;
#X floatatom 542 341 5 0 0 0 - - - 12;
#X obj 276 426 pack f f f f f;
#X listbox 276 475 13 0 0 0 - - - 16;
#X obj 276 537 remove 0;
#X listbox 276 587 13 0 0 0 - - - 16;
#X obj 276 790 AllHello;
#X obj 276 636 t l b;
#X obj 116 674 bng 25 250 50 0 empty empty empty 17 7 0 10 #e4e4e4 #4d4d4d #373737;
#X obj 163 564 spigot;
#X obj 186 495 tgl 25 0 empty empty empty 17 7 0 10 #e4e4e4 #4d4d4d #373737 0 1;
#X obj 298 688 rand.i 2500 8000;
#X text 466 10 These inlets take in a variable assigned to each speaker that signifies whether or not it is dead;
#X text 192 3 This inlet takes in a variable that counts the amount of remaining speakers, f 29;
#X text 267 75 float;
#X text 510 75 float;
#X text 561 75 float;
#X text 619 75 float;
#X text 670 75 float;
#X obj 276 177 sel 1;
#X floatatom 586 537 5 0 0 0 - - - 12;
#X obj 633 572 sel 1 2 3 4;
#X obj 601 418 receive deathspeaker1;
#X obj 749 418 receive deathspeaker2;
#X obj 899 418 receive deathspeaker3;
#X obj 1053 418 receive deathspeaker4;
#X obj 650 674 +;
#X msg 664 629 1;
#X msg 798 534 1;
#X obj 650 759 sel 2;
#X floatatom 650 715 5 0 0 0 - - - 12;
#X msg 484 729 clear;
#X obj 276 746 pipe;
#X msg 189 407 1;
#X text -98 507 once the final speaker is killed \, this spigot closes and no more sound will be played, f 30;
#X connect 0 0 27 0;
#X connect 1 0 10 0;
#X connect 1 0 41 0;
#X connect 2 0 6 0;
#X connect 3 0 7 0;
#X connect 4 0 8 0;
#X connect 5 0 9 0;
#X connect 6 0 10 1;
#X connect 7 0 10 2;
#X connect 8 0 10 3;
#X connect 9 0 10 4;
#X connect 10 0 11 0;
#X connect 11 0 12 0;
#X connect 12 0 13 0;
#X connect 13 0 15 0;
#X connect 13 0 28 0;
#X connect 14 0 16 0;
#X connect 14 1 16 0;
#X connect 14 2 16 0;
#X connect 14 3 16 0;
#X connect 15 0 40 0;
#X connect 15 1 19 0;
#X connect 16 0 17 0;
#X connect 17 0 13 0;
#X connect 18 0 17 1;
#X connect 19 0 40 1;
#X connect 27 0 1 0;
#X connect 28 0 29 0;
#X connect 29 0 35 0;
#X connect 29 1 35 0;
#X connect 29 2 35 0;
#X connect 29 3 35 0;
#X connect 30 0 36 0;
#X connect 31 0 36 0;
#X connect 32 0 36 0;
#X connect 33 0 36 0;
#X connect 34 0 38 0;
#X connect 35 0 34 1;
#X connect 36 0 34 0;
#X connect 37 0 18 0;
#X connect 37 0 39 0;
#X connect 38 0 37 0;
#X connect 39 0 40 0;
#X connect 40 0 14 0;
#X connect 41 0 18 0;
