#N canvas 827 239 527 327 12;
#X obj 798 94 inlet;
#X obj 762 1287 outlet;
#X obj 97 387 bng 25 250 50 0 empty empty empty 17 7 0 10 #e4e4e4 #4d4d4d #373737;
#X obj 97 488 bng 25 250 50 0 empty empty empty 17 7 0 10 #e4e4e4 #4d4d4d #373737;
#X obj 97 582 bng 25 250 50 0 empty empty empty 17 7 0 10 #e4e4e4 #4d4d4d #373737;
#X msg 97 989 0;
#X floatatom 228 385 5 0 0 0 - - - 12;
#X obj 228 417 mtof;
#X obj 228 573 *~;
#X obj 228 751 dac~ 1 2;
#X obj 228 532 sine~;
#X obj 95 1030 bng 25 250 50 0 empty empty empty 17 7 0 10 #e4e4e4 #4d4d4d #373737;
#X msg 303 293 0.5;
#X obj 373 438 knob 37 0 1 0 0 empty empty #E4E4E4 #B7B7B7 #4D4D4D 1 0 0 0 1 270 0 0 0;
#X obj 97 293 bng 25 250 50 0 empty empty empty 17 7 0 10 #e4e4e4 #4d4d4d #373737;
#X msg 97 356 72;
#X msg 97 460 76;
#X msg 97 554 79;
#X obj 95 696 bng 25 250 50 0 empty empty empty 17 7 0 10 #e4e4e4 #4d4d4d #373737;
#X obj 95 797 bng 25 250 50 0 empty empty empty 17 7 0 10 #e4e4e4 #4d4d4d #373737;
#X obj 95 891 bng 25 250 50 0 empty empty empty 17 7 0 10 #e4e4e4 #4d4d4d #373737;
#X msg 95 665 72;
#X msg 95 769 76;
#X msg 95 863 79;
#X obj 95 926 delay 300;
#X obj 97 426 delay 100;
#X obj 97 522 delay 100;
#X obj 95 735 delay 100;
#X obj 95 831 delay 100;
#X obj 97 617 delay 200;
#X obj 798 144 sel 1 2 3 4;
#X obj 520 387 bng 25 250 50 0 empty empty empty 17 7 0 10 #e4e4e4 #4d4d4d #373737;
#X obj 520 488 bng 25 250 50 0 empty empty empty 17 7 0 10 #e4e4e4 #4d4d4d #373737;
#X obj 520 582 bng 25 250 50 0 empty empty empty 17 7 0 10 #e4e4e4 #4d4d4d #373737;
#X msg 520 989 0;
#X floatatom 651 385 5 0 0 0 - - - 12;
#X obj 651 417 mtof;
#X obj 651 573 *~;
#X obj 651 751 dac~ 1 2;
#X obj 651 532 sine~;
#X obj 518 1030 bng 25 250 50 0 empty empty empty 17 7 0 10 #e4e4e4 #4d4d4d #373737;
#X msg 726 293 0.5;
#X obj 796 438 knob 37 0 1 0 0 empty empty #E4E4E4 #B7B7B7 #4D4D4D 1 0 0 0 1 270 0 0 0;
#X obj 520 293 bng 25 250 50 0 empty empty empty 17 7 0 10 #e4e4e4 #4d4d4d #373737;
#X msg 520 356 72;
#X msg 520 460 76;
#X msg 520 554 79;
#X obj 518 696 bng 25 250 50 0 empty empty empty 17 7 0 10 #e4e4e4 #4d4d4d #373737;
#X obj 518 797 bng 25 250 50 0 empty empty empty 17 7 0 10 #e4e4e4 #4d4d4d #373737;
#X obj 518 891 bng 25 250 50 0 empty empty empty 17 7 0 10 #e4e4e4 #4d4d4d #373737;
#X msg 518 665 72;
#X msg 518 769 76;
#X msg 518 863 79;
#X obj 518 926 delay 300;
#X obj 520 426 delay 100;
#X obj 520 522 delay 100;
#X obj 518 735 delay 100;
#X obj 518 831 delay 100;
#X obj 520 617 delay 200;
#X obj 909 387 bng 25 250 50 0 empty empty empty 17 7 0 10 #e4e4e4 #4d4d4d #373737;
#X obj 909 488 bng 25 250 50 0 empty empty empty 17 7 0 10 #e4e4e4 #4d4d4d #373737;
#X obj 909 582 bng 25 250 50 0 empty empty empty 17 7 0 10 #e4e4e4 #4d4d4d #373737;
#X msg 909 989 0;
#X floatatom 1040 385 5 0 0 0 - - - 12;
#X obj 1040 417 mtof;
#X obj 1040 573 *~;
#X obj 1040 751 dac~ 1 2;
#X obj 1040 532 sine~;
#X obj 907 1030 bng 25 250 50 0 empty empty empty 17 7 0 10 #e4e4e4 #4d4d4d #373737;
#X msg 1115 293 0.5;
#X obj 1185 438 knob 37 0 1 0 0 empty empty #E4E4E4 #B7B7B7 #4D4D4D 1 0 0 0 1 270 0 0 0;
#X obj 909 293 bng 25 250 50 0 empty empty empty 17 7 0 10 #e4e4e4 #4d4d4d #373737;
#X msg 909 356 72;
#X msg 909 460 76;
#X msg 909 554 79;
#X obj 907 696 bng 25 250 50 0 empty empty empty 17 7 0 10 #e4e4e4 #4d4d4d #373737;
#X obj 907 797 bng 25 250 50 0 empty empty empty 17 7 0 10 #e4e4e4 #4d4d4d #373737;
#X obj 907 891 bng 25 250 50 0 empty empty empty 17 7 0 10 #e4e4e4 #4d4d4d #373737;
#X msg 907 665 72;
#X msg 907 769 76;
#X msg 907 863 79;
#X obj 907 926 delay 300;
#X obj 909 426 delay 100;
#X obj 909 522 delay 100;
#X obj 907 735 delay 100;
#X obj 907 831 delay 100;
#X obj 909 617 delay 200;
#X obj 1326 387 bng 25 250 50 0 empty empty empty 17 7 0 10 #e4e4e4 #4d4d4d #373737;
#X obj 1326 488 bng 25 250 50 0 empty empty empty 17 7 0 10 #e4e4e4 #4d4d4d #373737;
#X obj 1326 582 bng 25 250 50 0 empty empty empty 17 7 0 10 #e4e4e4 #4d4d4d #373737;
#X msg 1326 989 0;
#X floatatom 1457 385 5 0 0 0 - - - 12;
#X obj 1457 417 mtof;
#X obj 1457 573 *~;
#X obj 1457 751 dac~ 1 2;
#X obj 1457 532 sine~;
#X obj 1324 1030 bng 25 250 50 0 empty empty empty 17 7 0 10 #e4e4e4 #4d4d4d #373737;
#X msg 1532 293 0.5;
#X obj 1602 438 knob 37 0 1 0 0 empty empty #E4E4E4 #B7B7B7 #4D4D4D 1 0 0 0 1 270 0 0 0;
#X obj 1326 293 bng 25 250 50 0 empty empty empty 17 7 0 10 #e4e4e4 #4d4d4d #373737;
#X msg 1326 356 72;
#X msg 1326 460 76;
#X msg 1326 554 79;
#X obj 1324 696 bng 25 250 50 0 empty empty empty 17 7 0 10 #e4e4e4 #4d4d4d #373737;
#X obj 1324 797 bng 25 250 50 0 empty empty empty 17 7 0 10 #e4e4e4 #4d4d4d #373737;
#X obj 1324 891 bng 25 250 50 0 empty empty empty 17 7 0 10 #e4e4e4 #4d4d4d #373737;
#X msg 1324 665 72;
#X msg 1324 769 76;
#X msg 1324 863 79;
#X obj 1324 926 delay 300;
#X obj 1326 426 delay 100;
#X obj 1326 522 delay 100;
#X obj 1324 735 delay 100;
#X obj 1324 831 delay 100;
#X obj 1326 617 delay 200;
#X connect 0 0 30 0;
#X connect 2 0 25 0;
#X connect 3 0 26 0;
#X connect 4 0 29 0;
#X connect 5 0 11 0;
#X connect 5 0 13 0;
#X connect 6 0 7 0;
#X connect 7 0 10 0;
#X connect 8 0 9 0;
#X connect 10 0 8 0;
#X connect 11 0 1 0;
#X connect 12 0 13 0;
#X connect 13 0 8 1;
#X connect 14 0 12 0;
#X connect 14 0 15 0;
#X connect 15 0 2 0;
#X connect 15 0 6 0;
#X connect 16 0 3 0;
#X connect 16 0 6 0;
#X connect 17 0 4 0;
#X connect 17 0 6 0;
#X connect 18 0 27 0;
#X connect 19 0 28 0;
#X connect 20 0 24 0;
#X connect 21 0 18 0;
#X connect 21 0 6 0;
#X connect 22 0 19 0;
#X connect 22 0 6 0;
#X connect 23 0 20 0;
#X connect 23 0 6 0;
#X connect 24 0 5 0;
#X connect 25 0 16 0;
#X connect 26 0 17 0;
#X connect 27 0 22 0;
#X connect 28 0 23 0;
#X connect 29 0 21 0;
#X connect 30 0 14 0;
#X connect 30 1 43 0;
#X connect 30 2 71 0;
#X connect 30 3 99 0;
#X connect 31 0 54 0;
#X connect 32 0 55 0;
#X connect 33 0 58 0;
#X connect 34 0 40 0;
#X connect 34 0 42 0;
#X connect 35 0 36 0;
#X connect 36 0 39 0;
#X connect 37 0 38 0;
#X connect 39 0 37 0;
#X connect 40 0 1 0;
#X connect 41 0 42 0;
#X connect 42 0 37 1;
#X connect 43 0 41 0;
#X connect 43 0 44 0;
#X connect 44 0 31 0;
#X connect 44 0 35 0;
#X connect 45 0 32 0;
#X connect 45 0 35 0;
#X connect 46 0 33 0;
#X connect 46 0 35 0;
#X connect 47 0 56 0;
#X connect 48 0 57 0;
#X connect 49 0 53 0;
#X connect 50 0 47 0;
#X connect 50 0 35 0;
#X connect 51 0 48 0;
#X connect 51 0 35 0;
#X connect 52 0 49 0;
#X connect 52 0 35 0;
#X connect 53 0 34 0;
#X connect 54 0 45 0;
#X connect 55 0 46 0;
#X connect 56 0 51 0;
#X connect 57 0 52 0;
#X connect 58 0 50 0;
#X connect 59 0 82 0;
#X connect 60 0 83 0;
#X connect 61 0 86 0;
#X connect 62 0 68 0;
#X connect 62 0 70 0;
#X connect 63 0 64 0;
#X connect 64 0 67 0;
#X connect 65 0 66 0;
#X connect 67 0 65 0;
#X connect 68 0 1 0;
#X connect 69 0 70 0;
#X connect 70 0 65 1;
#X connect 71 0 69 0;
#X connect 71 0 72 0;
#X connect 72 0 59 0;
#X connect 72 0 63 0;
#X connect 73 0 60 0;
#X connect 73 0 63 0;
#X connect 74 0 61 0;
#X connect 74 0 63 0;
#X connect 75 0 84 0;
#X connect 76 0 85 0;
#X connect 77 0 81 0;
#X connect 78 0 75 0;
#X connect 78 0 63 0;
#X connect 79 0 76 0;
#X connect 79 0 63 0;
#X connect 80 0 77 0;
#X connect 80 0 63 0;
#X connect 81 0 62 0;
#X connect 82 0 73 0;
#X connect 83 0 74 0;
#X connect 84 0 79 0;
#X connect 85 0 80 0;
#X connect 86 0 78 0;
#X connect 87 0 110 0;
#X connect 88 0 111 0;
#X connect 89 0 114 0;
#X connect 90 0 96 0;
#X connect 90 0 98 0;
#X connect 91 0 92 0;
#X connect 92 0 95 0;
#X connect 93 0 94 0;
#X connect 95 0 93 0;
#X connect 96 0 1 0;
#X connect 97 0 98 0;
#X connect 98 0 93 1;
#X connect 99 0 97 0;
#X connect 99 0 100 0;
#X connect 100 0 87 0;
#X connect 100 0 91 0;
#X connect 101 0 88 0;
#X connect 101 0 91 0;
#X connect 102 0 89 0;
#X connect 102 0 91 0;
#X connect 103 0 112 0;
#X connect 104 0 113 0;
#X connect 105 0 109 0;
#X connect 106 0 103 0;
#X connect 106 0 91 0;
#X connect 107 0 104 0;
#X connect 107 0 91 0;
#X connect 108 0 105 0;
#X connect 108 0 91 0;
#X connect 109 0 90 0;
#X connect 110 0 101 0;
#X connect 111 0 102 0;
#X connect 112 0 107 0;
#X connect 113 0 108 0;
#X connect 114 0 106 0;
