#N canvas 827 239 527 327 12;
#X obj 103 163 Hello1;
#X obj 161 163 Hello2;
#X obj 232 163 Hello3;
#X obj 297 163 Hello4;
#X obj 103 21 inlet;
#X obj 103 87 sel 1 2 3 4;
#X obj 103 221 outlet;
#X obj 161 221 outlet;
#X obj 232 221 outlet;
#X obj 297 221 outlet;
#X connect 0 0 6 0;
#X connect 1 0 7 0;
#X connect 2 0 8 0;
#X connect 3 0 9 0;
#X connect 4 0 5 0;
#X connect 5 0 0 0;
#X connect 5 1 1 0;
#X connect 5 2 2 0;
#X connect 5 3 3 0;
