#N canvas 827 239 527 327 12;
#X obj 155 90 inlet;
#X obj 155 156 sel 1 2 3 4;
#X obj 155 256 SeeU1;
#X obj 221 256 SeeU2;
#X obj 291 256 SeeU3;
#X obj 367 256 SeeU4;
#X obj 155 326 outlet;
#X obj 221 326 outlet;
#X obj 291 326 outlet;
#X obj 367 326 outlet;
#X connect 0 0 1 0;
#X connect 1 0 2 0;
#X connect 1 1 3 0;
#X connect 1 2 4 0;
#X connect 1 3 5 0;
#X connect 2 0 6 0;
#X connect 3 0 7 0;
#X connect 4 0 8 0;
#X connect 5 0 9 0;
