#N canvas 827 239 527 327 12;
#X obj 339 212 value speaker1;
#X obj 355 242 value speaker2;
#X obj 371 270 value speaker3;
#X obj 388 306 value speaker4;
#X obj 323 372 pack f f f f f;
#X listbox 323 412 9 0 0 0 - - - 16;
#X obj 323 101 bng 25 250 50 0 empty empty empty 17 7 0 10 #e4e4e4 #4d4d4d #373737;
#X obj 323 178 t b b b b b;
#X obj 323 453 remove 0;
#X listbox 323 492 9 0 0 0 - - - 16;
#X obj 323 534 list length;
#X floatatom 323 574 5 0 0 0 - - - 12;
#X obj 323 54 inlet;
#X obj 323 627 outlet;
#X text 323 16 bang;
#X text 323 673 float;
#X text 534 89 by counting the amount of speakers with variables that are NOT 0 (indicating death) \, this patch outputs the number of speakers that are still alive;
#X connect 0 0 4 1;
#X connect 1 0 4 2;
#X connect 2 0 4 3;
#X connect 3 0 4 4;
#X connect 4 0 5 0;
#X connect 5 0 8 0;
#X connect 6 0 7 0;
#X connect 7 0 4 0;
#X connect 7 1 0 0;
#X connect 7 2 1 0;
#X connect 7 3 2 0;
#X connect 7 4 3 0;
#X connect 8 0 9 0;
#X connect 9 0 10 0;
#X connect 10 0 11 0;
#X connect 11 0 13 0;
#X connect 12 0 6 0;
