#N canvas 4 100 2880 1440 12;
#X obj 156 274 bob~;
#X msg 170 238 2100;
#X msg 220 238 2100;
#X obj 156 367 *~;
#X obj 278 284 knob 50 0 1 0 0 empty empty #E4E4E4 #B7B7B7 #4D4D4D 1 0 0 0 1 270 0 0 0;
#X obj 145 61 bng 25 250 50 0 empty empty empty 17 7 0 10 #e4e4e4 #4d4d4d #373737;
#X msg 229 88 0.6, f 4;
#X obj 145 141 delay 1000;
#X msg 278 141 0;
#X msg 89 169 200;
#X obj 145 27 inlet;
#X obj 45 590 outlet;
#X obj 122 98 t b b b b b;
#X obj 145 202 bl.square~;
#X obj 149 488 *~;
#X obj 152 432 crusher~ 0.5 0.25;
#X obj 342 454 loadbang;
#X obj 148 565 dac~ 4;
#X msg 310 507 0.05;
#X obj 462 483 r volume_on;
#X connect 0 0 3 0;
#X connect 1 0 0 1;
#X connect 2 0 0 2;
#X connect 3 0 15 0;
#X connect 4 0 3 1;
#X connect 5 0 6 0;
#X connect 5 0 12 0;
#X connect 6 0 4 0;
#X connect 7 0 8 0;
#X connect 8 0 4 0;
#X connect 9 0 13 0;
#X connect 10 0 5 0;
#X connect 12 0 11 0;
#X connect 12 1 7 0;
#X connect 12 2 9 0;
#X connect 12 3 1 0;
#X connect 12 4 2 0;
#X connect 13 0 0 0;
#X connect 14 0 17 0;
#X connect 15 0 14 0;
#X connect 16 0 18 0;
#X connect 18 0 14 1;
#X connect 19 0 18 0;
