#N canvas 827 239 527 327 12;
#X obj 121 184 bng 25 250 50 0 empty empty empty 17 7 0 10 #e4e4e4 #4d4d4d #373737;
#X obj 121 295 delay 50;
#X obj 121 143 inlet;
#X obj 121 350 outlet;
#X obj 190 352 outlet;
#X msg 189 295 stop;
#X obj 258 294 panic_sound;
#X obj 121 229 trigger b b b;
#X obj 256 353 outlet~;
#X obj 318 263 delay 4000;
#X connect 0 0 7 0;
#X connect 1 0 3 0;
#X connect 2 0 0 0;
#X connect 5 0 4 0;
#X connect 6 0 8 0;
#X connect 7 0 6 0;
#X connect 7 0 9 0;
#X connect 7 1 1 0;
#X connect 7 2 5 0;
#X connect 9 0 6 1;
