#N canvas 827 239 527 327 12;
#X msg 254 379 0.01;
#X msg 202 379 0.02;
#X msg 367 379 0.02;
#X msg 315 379 0.05;
#X msg 424 379 0.1;
#X msg 476 379 0.04;
#X msg 535 379 0.1;
#X msg 587 379 0.2;
#X msg 67 382 0;
#X msg 122 382 0;
#X obj 216 664 outlet;
#X obj 377 664 outlet;
#X text 122 709 sends left bitcrush inlet;
#X text 371 708 sends right bitcrush inlet;
#X obj 88 72 r speaker3_100;
#X obj 197 72 r speaker3_120;
#X obj 306 71 r speaker3_160;
#X obj 419 72 r speaker3_180;
#X obj 535 72 r speaker3_200;
#X connect 0 0 11 0;
#X connect 1 0 10 0;
#X connect 2 0 11 0;
#X connect 3 0 10 0;
#X connect 4 0 10 0;
#X connect 5 0 11 0;
#X connect 6 0 10 0;
#X connect 7 0 11 0;
#X connect 8 0 10 0;
#X connect 9 0 11 0;
#X connect 14 0 8 0;
#X connect 14 0 9 0;
#X connect 15 0 1 0;
#X connect 15 0 0 0;
#X connect 16 0 3 0;
#X connect 16 0 2 0;
#X connect 17 0 4 0;
#X connect 17 0 5 0;
#X connect 18 0 6 0;
#X connect 18 0 7 0;
