#N canvas 827 239 527 327 12;
#X floatatom 648 728 5 0 0 0 - - - 12;
#X obj 647 642 float;
#X obj 734 304 tgl 25 0 empty empty empty 17 7 0 10 #e4e4e4 #4d4d4d #373737 0 1;
#X floatatom 927 148 11 0 0 0 - - - 12;
#X floatatom 758 916 5 0 0 0 - - - 16;
#X msg 455 599 0;
#X floatatom 649 1017 5 0 0 0 - - - 16;
#X text 1022 147 playspeed in %;
#X obj 703 642 + 1;
#X obj 647 594 t b b;
#X obj 804 594 t b b;
#X obj 806 642 float;
#X floatatom 806 701 5 0 0 0 - - - 12;
#X obj 867 642 + 0;
#X obj 806 674 * 0.01;
#X floatatom 712 699 5 0 0 0 - - - 12;
#X obj 770 792 / 0;
#X floatatom 770 828 5 0 0 0 - - - 12;
#X obj 734 508 t b b;
#X text 480 723 elapsed time in seconds;
#X text 830 827 average play speed of fear;
#X msg 449 1565 pause;
#X obj 650 1430 bng 25 250 50 0 empty empty empty 17 7 0 10 #e4e4e4 #4d4d4d #373737;
#X obj 648 1135 t b f;
#X obj 690 1266 * 1000;
#X obj 448 501 bng 25 250 50 0 empty empty empty 17 7 0 10 #e4e4e4 #4d4d4d #373737;
#X obj 448 462 spigot;
#X msg 649 1554 continue;
#X obj 804 185 > 100;
#X obj 439 383 change;
#X obj 449 549 delay 100;
#X obj 690 1223 moses 0.1;
#X obj 758 880 * 0;
#X obj 649 955 -;
#X obj 649 986 * -1;
#X obj 452 1502 outlet;
#X obj 647 1502 outlet;
#X obj 554 1502 outlet;
#X obj 554 1314 bng 25 250 50 0 empty empty empty 17 7 0 10 #e4e4e4 #4d4d4d #373737;
#X obj 552 981 spigot;
#X obj 353 1209 spigot;
#X obj 353 1236 bng 25 250 50 0 empty empty empty 17 7 0 10 #e4e4e4 #4d4d4d #373737;
#X obj 222 1236 bng 25 250 50 0 empty empty empty 17 7 0 10 #e4e4e4 #4d4d4d #373737;
#X obj 679 1320 +;
#X obj 647 792 t f f f f f;
#X obj 734 462 metro 1;
#X obj 648 699 * 0.001;
#X obj 353 1267 0;
#X obj 222 1267 5100;
#X obj 732 1502 outlet;
#X obj 575 912 >= 15;
#X obj 371 1172 < 15;
#X obj 841 1339 > 0;
#X obj 708 1443 tgl 25 0 empty empty empty 17 7 0 10 #e4e4e4 #4d4d4d #373737 0 1;
#X obj 880 1381 - 1;
#X obj 586 1264 spigot;
#X floatatom 758 1370 5 0 0 0 - - - 16;
#X obj 732 1318 spigot;
#X obj 554 1082 spigot;
#X obj 718 1408 loadbang;
#X msg 1106 111 200;
#X msg 1047 115 100;
#X obj 578 1701 timer;
#X floatatom 588 1733 5 0 0 0 - - - 16;
#X obj 265 1365 tgl 25 0 empty empty empty 17 7 0 10 #e4e4e4 #4d4d4d #373737 0 1;
#X obj 871 308 - 1;
#X obj 871 277 == 1;
#X obj 871 339 tgl 25 0 empty empty empty 17 7 0 10 #e4e4e4 #4d4d4d #373737 0 1;
#X obj 777 271 spigot;
#X obj 804 216 t f f;
#X obj 871 185 == 100;
#X obj 871 224 - 1;
#X obj 490 425 == 1;
#X obj 433 425 == 0;
#X obj 734 339 t f f f;
#X obj 530 358 + 1;
#X obj 591 399 + 2;
#X obj 318 1371 delay 21000;
#X obj 927 93 r play_speed-A;
#X obj 64 1202 r fear_delay_bass;
#X obj 265 1436 s on/off_bass;
#X obj 470 1394 s fear_delay_bass;
#X obj 265 1320 loadbang;
#X obj 649 1394 delay 10;
#X text 309 178 this part cancles out the repeated bangs so that they don't get passed along to the delay calculation when the speaker is still waiting for the previous delay to end., f 61;
#X text 84 1060 this part looks at how long the speed increase has been going on for. depending on if the threshold has been met \, either no time is added \, or the delay time of the pause&play is added, f 33;
#X text 1032 1366 this part makes sure that nothing can pass if the main patch is still waiting for the delay to finish \, mainly if the sped up time is not greater than 15 seconds, f 33;
#X text 888 700 this part calculates the time the speakers have to turn off after speeding up, f 33;
#X connect 0 0 39 0 32.................Q....D5+++eD....g9+++uN....;
#X connect 0 0 44 0;
#X connect 1 0 8 0;
#X connect 1 0 15 0;
#X connect 1 0 46 0;
#X connect 2 0 74 0;
#X connect 3 0 13 1;
#X connect 3 0 28 0;
#X connect 3 0 70 0;
#X connect 4 0 33 1;
#X connect 5 0 1 1;
#X connect 5 0 11 1;
#X connect 5 0 1 0;
#X connect 5 0 11 0;
#X connect 5 0 35 0;
#X connect 6 0 23 0;
#X connect 8 0 1 1;
#X connect 9 0 1 0;
#X connect 9 1 8 0;
#X connect 10 0 11 0;
#X connect 10 1 13 0;
#X connect 11 0 13 0;
#X connect 11 0 14 0;
#X connect 12 0 16 0;
#X connect 13 0 11 1;
#X connect 14 0 12 0;
#X connect 15 0 16 1;
#X connect 16 0 17 0;
#X connect 17 0 32 1;
#X connect 18 0 10 0;
#X connect 18 1 9 0;
#X connect 22 0 36 0;
#X connect 22 0 53 0;
#X connect 22 0 62 1;
#X connect 23 0 62 0;
#X connect 23 0 83 0;
#X connect 23 1 31 0;
#X connect 24 0 43 1;
#X connect 24 0 57 0;
#X connect 25 0 30 0;
#X connect 25 0 40 0 32.................K....H5++++B....h9+++ej....;
#X connect 26 0 25 0;
#X connect 28 0 69 0;
#X connect 29 0 73 0;
#X connect 30 0 5 0;
#X connect 31 1 24 0;
#X connect 32 0 4 0;
#X connect 33 0 34 0;
#X connect 34 0 6 0;
#X connect 38 0 37 0;
#X connect 38 0 64 0;
#X connect 38 0 77 0;
#X connect 38 0 81 0;
#X connect 39 0 58 0;
#X connect 40 0 41 0;
#X connect 41 0 47 0;
#X connect 42 0 48 0;
#X connect 43 0 52 0;
#X connect 43 0 56 0;
#X connect 43 0 83 1;
#X connect 44 0 50 0;
#X connect 44 1 33 0;
#X connect 44 2 32 0;
#X connect 44 4 51 0 32.................Y....vp+++eF....r5+++WP....;
#X connect 45 0 18 0;
#X connect 46 0 0 0;
#X connect 47 0 55 0;
#X connect 48 0 43 0 32.................N....jb...fC....IG...HB....;
#X connect 50 0 39 1;
#X connect 51 0 40 1;
#X connect 52 0 54 0;
#X connect 53 0 55 1 48.................GA...PO...vQ....zC...fx+++um++++n7+++64+++eM++++;
#X connect 53 0 57 1 48......................PN.........jC....0++++K....P8++++B...vZ++++;
#X connect 53 0 58 1 80.................YA...nP...PV....JD...zr+++eC....M6+++2....Pa9+++a9+++2l++++l++++i4+++62++++X9+++98++++m+++O;
#X connect 54 0 53 0;
#X connect 55 0 43 0;
#X connect 57 0 49 0;
#X connect 58 0 38 0;
#X connect 59 0 53 0;
#X connect 60 0 3 0;
#X connect 61 0 3 0;
#X connect 62 0 63 0;
#X connect 64 0 80 0;
#X connect 65 0 67 0;
#X connect 66 0 65 0;
#X connect 67 0 68 1;
#X connect 68 0 2 0;
#X connect 69 0 66 0;
#X connect 69 1 68 0;
#X connect 70 0 71 0;
#X connect 71 0 2 0;
#X connect 72 0 26 1;
#X connect 73 0 26 0;
#X connect 74 0 45 0;
#X connect 74 1 76 0;
#X connect 74 2 75 0;
#X connect 75 0 29 0;
#X connect 76 0 72 0;
#X connect 77 0 64 0;
#X connect 78 0 3 0;
#X connect 79 0 42 0;
#X connect 82 0 64 0;
#X connect 83 0 22 0;
