#N canvas 827 239 527 327 12;
#X floatatom 639 669 5 0 0 0 - - - 12;
#X obj 638 583 float;
#X obj 725 245 tgl 25 0 empty empty empty 17 7 0 10 #e4e4e4 #4d4d4d #373737 0 1;
#X floatatom 918 89 11 0 0 0 - - - 12;
#X floatatom 749 857 5 0 0 0 - - - 16;
#X msg 446 540 0;
#X floatatom 640 958 5 0 0 0 - - - 16;
#X text 1013 88 playspeed in %;
#X obj 694 583 + 1;
#X obj 638 535 t b b;
#X obj 795 535 t b b;
#X obj 797 583 float;
#X floatatom 797 642 5 0 0 0 - - - 12;
#X obj 858 583 + 0;
#X obj 797 615 * 0.01;
#X floatatom 703 640 5 0 0 0 - - - 12;
#X obj 761 733 / 0;
#X floatatom 761 769 5 0 0 0 - - - 12;
#X obj 725 449 t b b;
#X text 471 664 elapsed time in seconds;
#X text 808 804 average play speed of fear;
#X msg 440 1506 pause;
#X obj 641 1371 bng 25 250 50 0 empty empty empty 17 7 0 10 #e4e4e4 #4d4d4d #373737;
#X obj 639 1076 t b f;
#X obj 681 1207 * 1000;
#X obj 439 442 bng 25 250 50 0 empty empty empty 17 7 0 10 #e4e4e4 #4d4d4d #373737;
#X obj 439 403 spigot;
#X msg 640 1495 continue;
#X obj 795 126 > 100;
#X obj 430 324 change;
#X obj 440 490 delay 100;
#X obj 681 1164 moses 0.1;
#X obj 749 821 * 0;
#X obj 640 896 -;
#X obj 640 927 * -1;
#X obj 443 1443 outlet;
#X obj 638 1443 outlet;
#X obj 545 1443 outlet;
#X obj 545 1255 bng 25 250 50 0 empty empty empty 17 7 0 10 #e4e4e4 #4d4d4d #373737;
#X obj 543 922 spigot;
#X obj 344 1150 spigot;
#X obj 344 1177 bng 25 250 50 0 empty empty empty 17 7 0 10 #e4e4e4 #4d4d4d #373737;
#X obj 213 1150 spigot;
#X obj 213 1177 bng 25 250 50 0 empty empty empty 17 7 0 10 #e4e4e4 #4d4d4d #373737;
#X obj 670 1261 +;
#X obj 638 733 t f f f f f;
#X obj 725 403 metro 1;
#X obj 639 640 * 0.001;
#X obj 344 1208 0;
#X obj 213 1208 5100;
#X obj 723 1443 outlet;
#X obj 566 853 >= 15;
#X obj 362 1113 < 15;
#X obj 234 1113 >= 15;
#X obj 832 1280 > 0;
#X obj 699 1384 tgl 25 0 empty empty empty 17 7 0 10 #e4e4e4 #4d4d4d #373737 0 1;
#X obj 871 1322 - 1;
#X obj 577 1205 spigot;
#X floatatom 749 1311 5 0 0 0 - - - 16;
#X obj 723 1259 spigot;
#X obj 545 1023 spigot;
#X obj 918 34 r play_speed-B;
#X obj 709 1349 loadbang;
#X msg 1097 52 200;
#X msg 1038 56 100;
#X obj 569 1642 timer;
#X floatatom 579 1674 5 0 0 0 - - - 16;
#X obj 256 1306 tgl 25 0 empty empty empty 17 7 0 10 #e4e4e4 #4d4d4d #373737 0 1;
#X obj 862 249 - 1;
#X obj 862 218 == 1;
#X obj 461 1335 s fear_delay_trumpet1;
#X obj 55 1143 r fear_delay_trumpet1;
#X obj 862 280 tgl 25 0 empty empty empty 17 7 0 10 #e4e4e4 #4d4d4d #373737 0 1;
#X obj 768 212 spigot;
#X obj 795 157 t f f;
#X obj 862 126 == 100;
#X obj 862 165 - 1;
#X obj 1085 1050 bng 25 250 50 0 empty empty empty 17 7 0 10 #e4e4e4 #4d4d4d #373737;
#X obj 481 366 == 1;
#X obj 424 366 == 0;
#X obj 725 280 t f f f;
#X obj 521 299 + 1;
#X obj 582 340 + 2;
#X obj 309 1312 delay 21000;
#X obj 256 1377 s on/off_trumpet1;
#X obj 256 1261 loadbang;
#X obj 640 1335 delay 10;
#X connect 0 0 39 0 32.................Q....D5+++eD....g9+++uN....;
#X connect 0 0 45 0;
#X connect 1 0 8 0;
#X connect 1 0 15 0;
#X connect 1 0 47 0;
#X connect 2 0 80 0;
#X connect 3 0 13 1;
#X connect 3 0 28 0;
#X connect 3 0 75 0;
#X connect 4 0 33 1;
#X connect 5 0 1 1;
#X connect 5 0 11 1;
#X connect 5 0 1 0;
#X connect 5 0 11 0;
#X connect 5 0 35 0;
#X connect 6 0 23 0;
#X connect 8 0 1 1;
#X connect 9 0 1 0;
#X connect 9 1 8 0;
#X connect 10 0 11 0;
#X connect 10 1 13 0;
#X connect 11 0 13 0;
#X connect 11 0 14 0;
#X connect 12 0 16 0;
#X connect 13 0 11 1;
#X connect 14 0 12 0;
#X connect 15 0 16 1;
#X connect 16 0 17 0;
#X connect 17 0 32 1;
#X connect 18 0 10 0;
#X connect 18 1 9 0;
#X connect 22 0 36 0;
#X connect 22 0 55 0;
#X connect 22 0 65 1;
#X connect 23 0 77 0;
#X connect 23 0 65 0;
#X connect 23 0 86 0;
#X connect 23 1 31 0;
#X connect 24 0 44 1;
#X connect 24 0 59 0;
#X connect 25 0 30 0;
#X connect 25 0 40 0 32.................K....H5++++B....h9+++ej....;
#X connect 25 0 42 0 32.................K....7w++++B....e7+++ej....;
#X connect 26 0 25 0;
#X connect 28 0 74 0;
#X connect 29 0 79 0;
#X connect 30 0 5 0;
#X connect 31 1 24 0;
#X connect 32 0 4 0;
#X connect 33 0 34 0;
#X connect 34 0 6 0;
#X connect 38 0 37 0;
#X connect 38 0 70 0;
#X connect 38 0 67 0;
#X connect 38 0 83 0;
#X connect 39 0 60 0;
#X connect 40 0 41 0;
#X connect 41 0 48 0;
#X connect 42 0 43 0;
#X connect 43 0 49 0;
#X connect 44 0 54 0;
#X connect 44 0 58 0;
#X connect 44 0 86 1;
#X connect 45 0 51 0;
#X connect 45 1 33 0;
#X connect 45 2 32 0;
#X connect 45 3 53 0 32.................L....zi+++OC....83+++WP....;
#X connect 45 4 52 0 32.................Y....vp+++eF....r5+++WP....;
#X connect 46 0 18 0;
#X connect 47 0 0 0;
#X connect 48 0 57 0;
#X connect 49 0 44 0 32.................N....jb...fC....IG...HB....;
#X connect 51 0 39 1;
#X connect 52 0 40 1;
#X connect 53 0 42 1;
#X connect 54 0 56 0;
#X connect 55 0 57 1 48.................GA...PO...vQ....zC...fx+++um++++n7+++64+++eM++++;
#X connect 55 0 59 1 48......................PN.........jC....0++++K....P8++++B...vZ++++;
#X connect 55 0 60 1 80.................YA...nP...PV....JD...zr+++eC....M6+++2....Pa9+++a9+++2l++++l++++i4+++62++++X9+++98++++m+++O;
#X connect 56 0 55 0;
#X connect 57 0 44 0;
#X connect 59 0 50 0;
#X connect 60 0 38 0;
#X connect 61 0 3 0;
#X connect 62 0 55 0;
#X connect 63 0 3 0;
#X connect 64 0 3 0;
#X connect 65 0 66 0;
#X connect 67 0 84 0;
#X connect 68 0 72 0;
#X connect 69 0 68 0;
#X connect 71 0 43 0;
#X connect 72 0 73 1;
#X connect 73 0 2 0;
#X connect 74 0 69 0;
#X connect 74 1 73 0;
#X connect 75 0 76 0;
#X connect 76 0 2 0;
#X connect 78 0 26 1;
#X connect 79 0 26 0;
#X connect 80 0 46 0;
#X connect 80 1 82 0;
#X connect 80 2 81 0;
#X connect 81 0 29 0;
#X connect 82 0 78 0;
#X connect 83 0 67 0;
#X connect 85 0 67 0;
#X connect 86 0 22 0;
