#N canvas 827 239 527 327 12;
#X msg 241 339 0.01;
#X msg 189 339 0.02;
#X msg 354 339 0.02;
#X msg 302 339 0.05;
#X msg 411 339 0.1;
#X msg 463 339 0.04;
#X msg 54 342 0;
#X msg 109 342 0;
#X obj 203 624 outlet;
#X obj 364 624 outlet;
#X text 109 669 sends left bitcrush inlet;
#X text 358 668 sends right bitcrush inlet;
#X obj 75 32 r speaker2_100;
#X obj 184 32 r speaker2_120;
#X obj 293 31 r speaker2_160;
#X obj 406 32 r speaker2_180;
#X obj 522 32 r speaker2_200;
#X msg 522 339 0.05;
#X msg 574 339 0.1;
#X connect 0 0 9 0;
#X connect 1 0 8 0;
#X connect 2 0 9 0;
#X connect 3 0 8 0;
#X connect 4 0 8 0;
#X connect 5 0 9 0;
#X connect 6 0 8 0;
#X connect 7 0 9 0;
#X connect 12 0 6 0;
#X connect 12 0 7 0;
#X connect 13 0 1 0;
#X connect 13 0 0 0;
#X connect 14 0 3 0;
#X connect 14 0 2 0;
#X connect 15 0 4 0;
#X connect 15 0 5 0;
#X connect 16 0 17 0;
#X connect 16 0 18 0;
#X connect 17 0 8 0;
#X connect 18 0 9 0;
