#N canvas 827 239 527 327 12;
#X msg 279 354 0.01;
#X msg 227 354 0.02;
#X msg 392 354 0.02;
#X msg 340 354 0.05;
#X msg 501 354 0.04;
#X msg 92 357 0;
#X msg 147 357 0;
#X obj 241 639 outlet;
#X obj 402 639 outlet;
#X text 147 684 sends left bitcrush inlet;
#X text 396 683 sends right bitcrush inlet;
#X obj 113 47 r speaker1_100;
#X obj 222 47 r speaker1_120;
#X obj 331 46 r speaker1_160;
#X obj 444 47 r speaker1_180;
#X obj 560 47 r speaker1_200;
#X msg 612 354 0.1;
#X msg 560 354 0.05;
#X msg 449 354 0.05;
#X connect 0 0 8 0;
#X connect 1 0 7 0;
#X connect 2 0 8 0;
#X connect 3 0 7 0;
#X connect 4 0 8 0;
#X connect 5 0 7 0;
#X connect 6 0 8 0;
#X connect 11 0 5 0;
#X connect 11 0 6 0;
#X connect 12 0 1 0;
#X connect 12 0 0 0;
#X connect 13 0 3 0;
#X connect 13 0 2 0;
#X connect 14 0 18 0;
#X connect 14 0 4 0;
#X connect 15 0 17 0;
#X connect 15 0 16 0;
#X connect 16 0 8 0;
#X connect 17 0 7 0;
#X connect 18 0 7 0;
