#N canvas 827 239 527 327 12;
#X msg 234 341 0.01;
#X msg 182 341 0.02;
#X msg 347 341 0.02;
#X msg 295 341 0.05;
#X msg 404 341 0.1;
#X msg 456 341 0.04;
#X msg 515 341 0.1;
#X msg 567 341 0.2;
#X msg 47 344 0;
#X msg 102 344 0;
#X obj 196 626 outlet;
#X obj 357 626 outlet;
#X text 102 671 sends left bitcrush inlet;
#X text 351 670 sends right bitcrush inlet;
#X obj 68 34 r speaker4_100;
#X obj 177 34 r speaker4_120;
#X obj 286 33 r speaker4_160;
#X obj 399 34 r speaker4_180;
#X obj 515 34 r speaker4_200;
#X connect 0 0 11 0;
#X connect 1 0 10 0;
#X connect 2 0 11 0;
#X connect 3 0 10 0;
#X connect 4 0 10 0;
#X connect 5 0 11 0;
#X connect 6 0 10 0;
#X connect 7 0 11 0;
#X connect 8 0 10 0;
#X connect 9 0 11 0;
#X connect 14 0 8 0;
#X connect 14 0 9 0;
#X connect 15 0 1 0;
#X connect 15 0 0 0;
#X connect 16 0 3 0;
#X connect 16 0 2 0;
#X connect 17 0 4 0;
#X connect 17 0 5 0;
#X connect 18 0 6 0;
#X connect 18 0 7 0;
