#N canvas 827 239 527 327 12;
#X obj 163 184 inlet;
#X text 140 119 bang to start;
#X obj 560 184 inlet;
#X text 412 119 list to know which two speakers need to play the sound;
#X obj 163 234 bng 25 250 50 0 empty empty empty 17 7 0 10 #e4e4e4 #4d4d4d #373737;
#X listbox 560 262 9 0 0 0 - - - 0;
#X obj 560 404 unpack f f;
#X floatatom 456 472 5 0 0 0 - - - 12;
#X floatatom 661 473 5 0 0 0 - - - 12;
#X obj 380 586 AllFoundEachother;
#X obj 681 586 AllFoundEachother;
#X obj 560 337 spigot;
#X obj 659 297 tgl 25 0 empty empty empty 17 7 0 10 #e4e4e4 #4d4d4d #373737 0 1;
#X msg 697 234 0;
#X msg 179 322 1;
#X obj 560 218 t l b;
#X obj 163 270 t b b;
#X obj 579 674 bng 25 250 50 0 empty empty empty 17 7 0 10 #e4e4e4 #4d4d4d #373737;
#X obj 577 737 outlet;
#X connect 0 0 4 0;
#X connect 2 0 15 0;
#X connect 4 0 16 0;
#X connect 5 0 11 0;
#X connect 6 0 7 0;
#X connect 6 1 8 0;
#X connect 7 0 9 0;
#X connect 8 0 10 0;
#X connect 9 0 17 0;
#X connect 10 0 17 0;
#X connect 11 0 6 0;
#X connect 12 0 11 1;
#X connect 13 0 12 0;
#X connect 14 0 12 0;
#X connect 15 0 5 0;
#X connect 15 1 13 0;
#X connect 16 0 5 0;
#X connect 16 1 14 0;
#X connect 17 0 18 0;
#X connect 17 0 13 0;
