#N canvas 4 100 2880 1440 12;
#X obj 140 135 bng 25 250 50 0 empty empty empty 17 7 0 10 #e4e4e4 #4d4d4d #373737;
#X floatatom 139 310 5 0 0 0 - - - 16;
#X floatatom 259 310 5 0 0 0 - - - 16;
#X obj 177 414 bob~;
#X obj 96 356 brown~;
#X msg 185 179 stop;
#X msg 262 214 0;
#X obj 372 250 knob 50 0 127 0 0 empty empty #E4E4E4 #B7B7B7 #4D4D4D 1 0 0 0 1 270 0 0 0;
#X obj 176 448 *~;
#X obj 139 222 metro 50;
#X obj 140 96 inlet;
#X obj 214 98 inlet;
#X obj 177 559 outlet~;
#X obj 139 266 rand.i 50 300;
#X obj 259 266 rand.i 50 500;
#X msg 372 181 1;
#X obj 180 507 *~;
#X msg 307 474 3;
#X obj 304 442 loadbang;
#X obj 720 550 r volume_on;
#X connect 0 0 15 0;
#X connect 0 0 9 0;
#X connect 1 0 3 1;
#X connect 2 0 3 2;
#X connect 3 0 8 0;
#X connect 4 0 3 0;
#X connect 5 0 6 0;
#X connect 5 0 9 0;
#X connect 6 0 7 0;
#X connect 7 0 8 1;
#X connect 8 0 16 0;
#X connect 9 0 13 0;
#X connect 9 0 14 0;
#X connect 10 0 0 0;
#X connect 11 0 5 0;
#X connect 13 0 1 0;
#X connect 14 0 2 0;
#X connect 15 0 7 0;
#X connect 16 0 12 0;
#X connect 17 0 16 1;
#X connect 18 0 17 0;
#X connect 19 0 17 0;
