#N canvas 4 100 2880 1440 12;
#X obj 169 75 inlet;
#X msg 200 263 57;
#X obj 200 300 mtof;
#X floatatom 200 351 5 0 0 0 - - - 12;
#X obj 362 377 *~;
#X obj 373 221 knob 50 0 1 0 0 empty empty #E4E4E4 #B7B7B7 #4D4D4D 1 0 0 0 1 270 0 0 0;
#X msg 202 470 0;
#X msg 200 208 0.5;
#X obj 169 149 bng 25 250 50 0 empty empty empty 17 7 0 10 #e4e4e4 #4d4d4d #373737;
#X msg 202 722 0;
#X msg 200 595 0.4;
#X msg 203 987 0;
#X obj 200 389 bng 25 250 50 0 empty empty empty 17 7 0 10 #e4e4e4 #4d4d4d #373737;
#X obj 200 505 bng 25 250 50 0 empty empty empty 17 7 0 10 #e4e4e4 #4d4d4d #373737;
#X obj 200 628 bng 25 250 50 0 empty empty empty 17 7 0 10 #e4e4e4 #4d4d4d #373737;
#X obj 202 769 bng 25 250 50 0 empty empty empty 17 7 0 10 #e4e4e4 #4d4d4d #373737;
#X obj 202 911 bng 25 250 50 0 empty empty empty 17 7 0 10 #e4e4e4 #4d4d4d #373737;
#X obj 202 433 delay 200;
#X obj 200 677 delay 200;
#X obj 202 953 delay 200;
#X obj 200 545 delay 350;
#X obj 202 816 delay 350;
#X msg 204 1253 0;
#X obj 203 1035 bng 25 250 50 0 empty empty empty 17 7 0 10 #e4e4e4 #4d4d4d #373737;
#X obj 203 1177 bng 25 250 50 0 empty empty empty 17 7 0 10 #e4e4e4 #4d4d4d #373737;
#X obj 203 1219 delay 200;
#X obj 203 1082 delay 350;
#X obj 362 326 bl.square~;
#X msg 202 871 0.2;
#X msg 203 1137 0.1;
#X obj 204 1342 outlet;
#X obj 204 1298 bng 25 250 50 0 empty empty empty 17 7 0 10 #e4e4e4 #4d4d4d #373737;
#X obj 362 647 dac~ 4;
#X obj 522 252 FearThresholdSearchingSpeaker4;
#X obj 362 470 crusher~ 0 0;
#X obj 362 577 *~;
#X msg 448 557 0.025;
#X msg 528 512 loadbang;
#X obj 720 550 r volume_on;
#X connect 0 0 8 0;
#X connect 1 0 2 0;
#X connect 2 0 3 0;
#X connect 3 0 12 0;
#X connect 3 0 27 0;
#X connect 4 0 34 0;
#X connect 5 0 4 1;
#X connect 6 0 5 0;
#X connect 6 0 13 0;
#X connect 7 0 5 0;
#X connect 7 0 1 0;
#X connect 8 0 7 0;
#X connect 9 0 5 0;
#X connect 9 0 15 0;
#X connect 10 0 5 0;
#X connect 10 0 14 0;
#X connect 11 0 5 0;
#X connect 11 0 23 0;
#X connect 12 0 17 0;
#X connect 13 0 20 0;
#X connect 14 0 18 0;
#X connect 15 0 21 0;
#X connect 16 0 19 0;
#X connect 17 0 6 0;
#X connect 18 0 9 0;
#X connect 19 0 11 0;
#X connect 20 0 10 0;
#X connect 21 0 28 0;
#X connect 22 0 5 0;
#X connect 22 0 31 0;
#X connect 23 0 26 0;
#X connect 24 0 25 0;
#X connect 25 0 22 0;
#X connect 26 0 29 0;
#X connect 27 0 4 0;
#X connect 28 0 5 0;
#X connect 28 0 16 0;
#X connect 29 0 24 0;
#X connect 29 0 5 0;
#X connect 31 0 30 0;
#X connect 33 0 34 1;
#X connect 33 1 34 2;
#X connect 34 0 35 0;
#X connect 35 0 32 0;
#X connect 36 0 35 1;
#X connect 37 0 36 0;
#X connect 38 0 36 0;
