#N canvas 4 100 2880 1440 12;
#X obj 292 146 inlet;
#X floatatom 338 241 5 0 0 0 - - - 12;
#X obj 177 226 bng 25 250 50 0 empty empty empty 17 7 0 10 #e4e4e4 #4d4d4d #373737;
#X msg 292 452 57;
#X obj 292 489 mtof;
#X floatatom 292 540 5 0 0 0 - - - 12;
#X obj 454 566 *~;
#X obj 465 410 knob 50 0 1 0 0 empty empty #E4E4E4 #B7B7B7 #4D4D4D 1 0 0 0 1 270 0 0 0;
#X msg 294 659 0;
#X msg 292 397 0.5;
#X obj 292 345 bng 25 250 50 0 empty empty empty 17 7 0 10 #e4e4e4 #4d4d4d #373737;
#X msg 294 911 0;
#X msg 292 784 0.4;
#X msg 295 1176 0;
#X obj 292 578 bng 25 250 50 0 empty empty empty 17 7 0 10 #e4e4e4 #4d4d4d #373737;
#X obj 292 694 bng 25 250 50 0 empty empty empty 17 7 0 10 #e4e4e4 #4d4d4d #373737;
#X obj 292 817 bng 25 250 50 0 empty empty empty 17 7 0 10 #e4e4e4 #4d4d4d #373737;
#X obj 294 958 bng 25 250 50 0 empty empty empty 17 7 0 10 #e4e4e4 #4d4d4d #373737;
#X obj 294 1100 bng 25 250 50 0 empty empty empty 17 7 0 10 #e4e4e4 #4d4d4d #373737;
#X obj 294 622 delay 200;
#X obj 292 866 delay 200;
#X obj 294 1142 delay 200;
#X obj 292 734 delay 350;
#X obj 294 1005 delay 350;
#X msg 296 1442 0;
#X obj 295 1224 bng 25 250 50 0 empty empty empty 17 7 0 10 #e4e4e4 #4d4d4d #373737;
#X obj 295 1366 bng 25 250 50 0 empty empty empty 17 7 0 10 #e4e4e4 #4d4d4d #373737;
#X obj 295 1408 delay 200;
#X obj 295 1271 delay 350;
#X obj 454 515 bl.saw~;
#X msg 294 1060 0.2;
#X msg 295 1319 0.1;
#X msg 1118 433 57;
#X obj 1118 470 mtof;
#X floatatom 1118 521 5 0 0 0 - - - 12;
#X obj 1280 547 *~;
#X obj 1291 391 knob 50 0 1 0 0 empty empty #E4E4E4 #B7B7B7 #4D4D4D 1 0 0 0 1 270 0 0 0;
#X msg 1120 640 0;
#X msg 1118 378 0.5;
#X obj 1087 319 bng 25 250 50 0 empty empty empty 17 7 0 10 #e4e4e4 #4d4d4d #373737;
#X msg 1120 892 0;
#X msg 1118 765 0.4;
#X msg 1121 1157 0;
#X obj 1118 559 bng 25 250 50 0 empty empty empty 17 7 0 10 #e4e4e4 #4d4d4d #373737;
#X obj 1118 675 bng 25 250 50 0 empty empty empty 17 7 0 10 #e4e4e4 #4d4d4d #373737;
#X obj 1118 798 bng 25 250 50 0 empty empty empty 17 7 0 10 #e4e4e4 #4d4d4d #373737;
#X obj 1120 939 bng 25 250 50 0 empty empty empty 17 7 0 10 #e4e4e4 #4d4d4d #373737;
#X obj 1120 1081 bng 25 250 50 0 empty empty empty 17 7 0 10 #e4e4e4 #4d4d4d #373737;
#X obj 1120 603 delay 200;
#X obj 1118 847 delay 200;
#X obj 1120 1123 delay 200;
#X obj 1118 715 delay 350;
#X obj 1120 986 delay 350;
#X msg 1122 1423 0;
#X obj 1121 1205 bng 25 250 50 0 empty empty empty 17 7 0 10 #e4e4e4 #4d4d4d #373737;
#X obj 1121 1347 bng 25 250 50 0 empty empty empty 17 7 0 10 #e4e4e4 #4d4d4d #373737;
#X obj 1121 1389 delay 200;
#X obj 1121 1252 delay 350;
#X obj 1280 496 bl.square~;
#X msg 1120 1041 0.2;
#X msg 1121 1307 0.1;
#X obj 1122 1512 outlet;
#X obj 1122 1468 bng 25 250 50 0 empty empty empty 17 7 0 10 #e4e4e4 #4d4d4d #373737;
#X obj 294 1525 outlet;
#X obj 294 1481 bng 25 250 50 0 empty empty empty 17 7 0 10 #e4e4e4 #4d4d4d #373737;
#X text 574 217 if speaker 3 is dead \, speaker 4 takes over;
#X obj 292 254 sel 3;
#X obj 292 210 value speaker3;
#X obj 610 427 FearThresholdSearchingSpeaker3;
#X obj 453 682 crusher~ 0 0;
#X obj 1495 422 FearThresholdSearchingSpeaker4;
#X obj 442 836 dac~ 3;
#X obj 1278 821 dac~ 4;
#X obj 1284 646 crusher~ 0 0;
#X obj 444 783 *~;
#X msg 529 738 0.015;
#X obj 1272 760 *~;
#X msg 1357 715 0.025;
#X msg 578 696 loadbang;
#X msg 1429 685 loadbang;
#X obj 650 727 r volume_on;
#X obj 1348 682 r volume_on;
#X connect 0 0 67 0;
#X connect 2 0 67 0;
#X connect 3 0 4 0;
#X connect 4 0 5 0;
#X connect 5 0 14 0;
#X connect 5 0 29 0;
#X connect 6 0 69 0;
#X connect 7 0 6 1;
#X connect 8 0 7 0;
#X connect 8 0 15 0;
#X connect 9 0 7 0;
#X connect 9 0 3 0;
#X connect 10 0 9 0;
#X connect 11 0 7 0;
#X connect 11 0 17 0;
#X connect 12 0 7 0;
#X connect 12 0 16 0;
#X connect 13 0 7 0;
#X connect 13 0 25 0;
#X connect 14 0 19 0;
#X connect 15 0 22 0;
#X connect 16 0 20 0;
#X connect 17 0 23 0;
#X connect 18 0 21 0;
#X connect 19 0 8 0;
#X connect 20 0 11 0;
#X connect 21 0 13 0;
#X connect 22 0 12 0;
#X connect 23 0 30 0;
#X connect 24 0 7 0;
#X connect 24 0 64 0;
#X connect 25 0 28 0;
#X connect 26 0 27 0;
#X connect 27 0 24 0;
#X connect 28 0 31 0;
#X connect 29 0 6 0;
#X connect 30 0 7 0;
#X connect 30 0 18 0;
#X connect 31 0 26 0;
#X connect 31 0 7 0;
#X connect 32 0 33 0;
#X connect 33 0 34 0;
#X connect 34 0 43 0;
#X connect 34 0 58 0;
#X connect 35 0 73 0;
#X connect 36 0 35 1;
#X connect 37 0 36 0;
#X connect 37 0 44 0;
#X connect 38 0 36 0;
#X connect 38 0 32 0;
#X connect 39 0 38 0;
#X connect 40 0 36 0;
#X connect 40 0 46 0;
#X connect 41 0 36 0;
#X connect 41 0 45 0;
#X connect 42 0 36 0;
#X connect 42 0 54 0;
#X connect 43 0 48 0;
#X connect 44 0 51 0;
#X connect 45 0 49 0;
#X connect 46 0 52 0;
#X connect 47 0 50 0;
#X connect 48 0 37 0;
#X connect 49 0 40 0;
#X connect 50 0 42 0;
#X connect 51 0 41 0;
#X connect 52 0 59 0;
#X connect 53 0 36 0;
#X connect 53 0 62 0;
#X connect 54 0 57 0;
#X connect 55 0 56 0;
#X connect 56 0 53 0;
#X connect 57 0 60 0;
#X connect 58 0 35 0;
#X connect 59 0 36 0;
#X connect 59 0 47 0;
#X connect 60 0 55 0;
#X connect 60 0 36 0;
#X connect 62 0 61 0;
#X connect 64 0 63 0;
#X connect 66 0 10 0;
#X connect 66 1 39 0;
#X connect 67 0 1 0;
#X connect 67 0 66 0;
#X connect 68 0 69 1;
#X connect 68 1 69 2;
#X connect 69 0 74 0;
#X connect 70 0 73 1;
#X connect 70 1 73 2;
#X connect 73 0 76 0;
#X connect 74 0 71 0;
#X connect 75 0 74 1;
#X connect 76 0 72 0;
#X connect 77 0 76 1;
#X connect 78 0 75 0;
#X connect 79 0 77 0;
#X connect 80 0 75 0;
#X connect 81 0 77 0;
