#N canvas 4 100 2880 1440 12;
#X obj 195 30 inlet;
#X floatatom 241 132 5 0 0 0 - - - 12;
#X obj 80 117 bng 25 250 50 0 empty empty empty 17 7 0 10 #e4e4e4 #4d4d4d #373737;
#X msg 195 337 57;
#X obj 195 374 mtof;
#X floatatom 195 425 5 0 0 0 - - - 12;
#X obj 357 451 *~;
#X obj 368 295 knob 50 0 1 0 0 empty empty #E4E4E4 #B7B7B7 #4D4D4D 1 0 0 0 1 270 0 0 0;
#X msg 197 544 0;
#X msg 195 282 0.5;
#X obj 195 227 bng 25 250 50 0 empty empty empty 17 7 0 10 #e4e4e4 #4d4d4d #373737;
#X msg 197 796 0;
#X msg 195 669 0.4;
#X msg 198 1061 0;
#X obj 195 463 bng 25 250 50 0 empty empty empty 17 7 0 10 #e4e4e4 #4d4d4d #373737;
#X obj 195 579 bng 25 250 50 0 empty empty empty 17 7 0 10 #e4e4e4 #4d4d4d #373737;
#X obj 195 702 bng 25 250 50 0 empty empty empty 17 7 0 10 #e4e4e4 #4d4d4d #373737;
#X obj 197 843 bng 25 250 50 0 empty empty empty 17 7 0 10 #e4e4e4 #4d4d4d #373737;
#X obj 197 985 bng 25 250 50 0 empty empty empty 17 7 0 10 #e4e4e4 #4d4d4d #373737;
#X obj 197 507 delay 200;
#X obj 195 751 delay 200;
#X obj 197 1027 delay 200;
#X obj 195 619 delay 350;
#X obj 197 890 delay 350;
#X msg 199 1327 0;
#X obj 198 1109 bng 25 250 50 0 empty empty empty 17 7 0 10 #e4e4e4 #4d4d4d #373737;
#X obj 198 1251 bng 25 250 50 0 empty empty empty 17 7 0 10 #e4e4e4 #4d4d4d #373737;
#X obj 198 1293 delay 200;
#X obj 198 1156 delay 350;
#X obj 357 400 bl.tri~;
#X msg 198 1211 0.1;
#X msg 197 945 0.2;
#X obj 197 1415 outlet;
#X obj 197 1371 bng 25 250 50 0 empty empty empty 17 7 0 10 #e4e4e4 #4d4d4d #373737;
#X msg 921 337 57;
#X obj 921 374 mtof;
#X floatatom 921 425 5 0 0 0 - - - 12;
#X obj 1083 451 *~;
#X obj 1094 295 knob 50 0 1 0 0 empty empty #E4E4E4 #B7B7B7 #4D4D4D 1 0 0 0 1 270 0 0 0;
#X msg 923 544 0;
#X msg 921 282 0.5;
#X obj 890 223 bng 25 250 50 0 empty empty empty 17 7 0 10 #e4e4e4 #4d4d4d #373737;
#X msg 923 796 0;
#X msg 921 669 0.4;
#X msg 924 1061 0;
#X obj 921 463 bng 25 250 50 0 empty empty empty 17 7 0 10 #e4e4e4 #4d4d4d #373737;
#X obj 921 579 bng 25 250 50 0 empty empty empty 17 7 0 10 #e4e4e4 #4d4d4d #373737;
#X obj 921 702 bng 25 250 50 0 empty empty empty 17 7 0 10 #e4e4e4 #4d4d4d #373737;
#X obj 923 843 bng 25 250 50 0 empty empty empty 17 7 0 10 #e4e4e4 #4d4d4d #373737;
#X obj 923 985 bng 25 250 50 0 empty empty empty 17 7 0 10 #e4e4e4 #4d4d4d #373737;
#X obj 923 507 delay 200;
#X obj 921 751 delay 200;
#X obj 923 1027 delay 200;
#X obj 921 619 delay 350;
#X obj 923 890 delay 350;
#X msg 925 1327 0;
#X obj 924 1109 bng 25 250 50 0 empty empty empty 17 7 0 10 #e4e4e4 #4d4d4d #373737;
#X obj 924 1251 bng 25 250 50 0 empty empty empty 17 7 0 10 #e4e4e4 #4d4d4d #373737;
#X obj 924 1293 delay 200;
#X obj 924 1156 delay 350;
#X obj 1083 400 bl.square~;
#X msg 923 945 0.2;
#X msg 924 1211 0.1;
#X obj 925 1416 outlet;
#X obj 925 1372 bng 25 250 50 0 empty empty empty 17 7 0 10 #e4e4e4 #4d4d4d #373737;
#X obj 195 145 sel 2;
#X text 739 144 if speaker 2 is dead \, speaker 4 takes over;
#X obj 195 101 value speaker2;
#X obj 565 337 FearThresholdSearchingSpeaker2;
#X obj 357 530 crusher~ 0 0;
#X obj 1083 721 dac~ 4;
#X obj 1243 326 FearThresholdSearchingSpeaker4;
#X obj 1083 544 crusher~ 0 0;
#X obj 348 639 *~;
#X msg 1241 633 0.025;
#X obj 1084 646 *~;
#X obj 345 721 dac~ 2;
#X msg 404 600 40;
#X msg 528 512 loadbang;
#X msg 1348 482 loadbang;
#X obj 490 587 r volume_on;
#X obj 1303 570 r volume_on;
#X connect 0 0 67 0;
#X connect 2 0 67 0;
#X connect 3 0 4 0;
#X connect 4 0 5 0;
#X connect 5 0 14 0;
#X connect 5 0 29 0;
#X connect 6 0 69 0;
#X connect 7 0 6 1;
#X connect 8 0 7 0;
#X connect 8 0 15 0;
#X connect 9 0 7 0;
#X connect 9 0 3 0;
#X connect 10 0 9 0;
#X connect 11 0 7 0;
#X connect 11 0 17 0;
#X connect 12 0 7 0;
#X connect 12 0 16 0;
#X connect 13 0 7 0;
#X connect 13 0 25 0;
#X connect 14 0 19 0;
#X connect 15 0 22 0;
#X connect 16 0 20 0;
#X connect 17 0 23 0;
#X connect 18 0 21 0;
#X connect 19 0 8 0;
#X connect 20 0 11 0;
#X connect 21 0 13 0;
#X connect 22 0 12 0;
#X connect 23 0 31 0;
#X connect 24 0 7 0;
#X connect 24 0 33 0;
#X connect 25 0 28 0;
#X connect 26 0 27 0;
#X connect 27 0 24 0;
#X connect 28 0 30 0;
#X connect 29 0 6 0;
#X connect 30 0 26 0;
#X connect 30 0 7 0;
#X connect 31 0 7 0;
#X connect 31 0 18 0;
#X connect 33 0 32 0;
#X connect 34 0 35 0;
#X connect 35 0 36 0;
#X connect 36 0 45 0;
#X connect 36 0 60 0;
#X connect 37 0 72 0;
#X connect 38 0 37 1;
#X connect 39 0 38 0;
#X connect 39 0 46 0;
#X connect 40 0 38 0;
#X connect 40 0 34 0;
#X connect 41 0 40 0;
#X connect 42 0 38 0;
#X connect 42 0 48 0;
#X connect 43 0 38 0;
#X connect 43 0 47 0;
#X connect 44 0 38 0;
#X connect 44 0 56 0;
#X connect 45 0 50 0;
#X connect 46 0 53 0;
#X connect 47 0 51 0;
#X connect 48 0 54 0;
#X connect 49 0 52 0;
#X connect 50 0 39 0;
#X connect 51 0 42 0;
#X connect 52 0 44 0;
#X connect 53 0 43 0;
#X connect 54 0 61 0;
#X connect 55 0 38 0;
#X connect 55 0 64 0;
#X connect 56 0 59 0;
#X connect 57 0 58 0;
#X connect 58 0 55 0;
#X connect 59 0 62 0;
#X connect 60 0 37 0;
#X connect 61 0 38 0;
#X connect 61 0 49 0;
#X connect 62 0 57 0;
#X connect 62 0 38 0;
#X connect 64 0 63 0;
#X connect 65 0 10 0;
#X connect 65 1 41 0;
#X connect 67 0 1 0;
#X connect 67 0 65 0;
#X connect 68 0 69 1;
#X connect 68 1 69 2;
#X connect 69 0 73 0;
#X connect 71 0 72 1;
#X connect 71 1 72 2;
#X connect 72 0 75 0;
#X connect 73 0 76 0;
#X connect 74 0 75 1;
#X connect 75 0 70 0;
#X connect 77 0 73 1;
#X connect 78 0 77 0;
#X connect 79 0 74 0;
#X connect 80 0 77 0;
#X connect 81 0 74 0;
