#N canvas 4 100 2880 1440 12;
#X obj 494 87 inlet;
#X floatatom 540 159 5 0 0 0 - - - 12;
#X obj 494 172 sel 1;
#X obj 391 144 bng 25 250 50 0 empty empty empty 17 7 0 10 #e4e4e4 #4d4d4d #373737;
#X msg 367 387 57;
#X obj 367 424 mtof;
#X floatatom 367 475 5 0 0 0 - - - 12;
#X obj 529 501 *~;
#X obj 540 345 knob 50 0 1 0 0 empty empty #E4E4E4 #B7B7B7 #4D4D4D 1 0 0 0 1 270 0 0 0;
#X msg 369 594 0;
#X msg 367 332 0.5;
#X obj 367 273 bng 25 250 50 0 empty empty empty 17 7 0 10 #e4e4e4 #4d4d4d #373737;
#X msg 369 846 0;
#X msg 367 719 0.4;
#X msg 370 1111 0;
#X obj 367 513 bng 25 250 50 0 empty empty empty 17 7 0 10 #e4e4e4 #4d4d4d #373737;
#X obj 367 629 bng 25 250 50 0 empty empty empty 17 7 0 10 #e4e4e4 #4d4d4d #373737;
#X obj 367 752 bng 25 250 50 0 empty empty empty 17 7 0 10 #e4e4e4 #4d4d4d #373737;
#X obj 369 893 bng 25 250 50 0 empty empty empty 17 7 0 10 #e4e4e4 #4d4d4d #373737;
#X obj 369 1035 bng 25 250 50 0 empty empty empty 17 7 0 10 #e4e4e4 #4d4d4d #373737;
#X obj 369 557 delay 200;
#X obj 367 801 delay 200;
#X obj 369 1077 delay 200;
#X obj 367 669 delay 350;
#X obj 369 940 delay 350;
#X msg 371 1377 0;
#X obj 370 1159 bng 25 250 50 0 empty empty empty 17 7 0 10 #e4e4e4 #4d4d4d #373737;
#X obj 370 1301 bng 25 250 50 0 empty empty empty 17 7 0 10 #e4e4e4 #4d4d4d #373737;
#X obj 370 1343 delay 200;
#X obj 370 1206 delay 350;
#X obj 529 450 sine~;
#X msg 369 995 0.2;
#X msg 370 1261 0.1;
#X obj 366 1475 outlet;
#X obj 369 1432 bng 25 250 50 0 empty empty empty 17 7 0 10 #e4e4e4 #4d4d4d #373737;
#X msg 1156 398 57;
#X obj 1156 435 mtof;
#X floatatom 1156 486 5 0 0 0 - - - 12;
#X obj 1318 512 *~;
#X obj 1329 356 knob 50 0 1 0 0 empty empty #E4E4E4 #B7B7B7 #4D4D4D 1 0 0 0 1 270 0 0 0;
#X msg 1158 605 0;
#X msg 1156 343 0.5;
#X obj 1125 284 bng 25 250 50 0 empty empty empty 17 7 0 10 #e4e4e4 #4d4d4d #373737;
#X msg 1158 857 0;
#X msg 1156 730 0.4;
#X msg 1159 1122 0;
#X obj 1156 524 bng 25 250 50 0 empty empty empty 17 7 0 10 #e4e4e4 #4d4d4d #373737;
#X obj 1156 640 bng 25 250 50 0 empty empty empty 17 7 0 10 #e4e4e4 #4d4d4d #373737;
#X obj 1156 763 bng 25 250 50 0 empty empty empty 17 7 0 10 #e4e4e4 #4d4d4d #373737;
#X obj 1158 904 bng 25 250 50 0 empty empty empty 17 7 0 10 #e4e4e4 #4d4d4d #373737;
#X obj 1158 1046 bng 25 250 50 0 empty empty empty 17 7 0 10 #e4e4e4 #4d4d4d #373737;
#X obj 1158 568 delay 200;
#X obj 1156 812 delay 200;
#X obj 1158 1088 delay 200;
#X obj 1156 680 delay 350;
#X obj 1158 951 delay 350;
#X msg 1160 1388 0;
#X obj 1159 1170 bng 25 250 50 0 empty empty empty 17 7 0 10 #e4e4e4 #4d4d4d #373737;
#X obj 1159 1312 bng 25 250 50 0 empty empty empty 17 7 0 10 #e4e4e4 #4d4d4d #373737;
#X obj 1159 1354 delay 200;
#X obj 1159 1217 delay 350;
#X obj 1318 461 bl.square~;
#X msg 1158 1006 0.2;
#X msg 1159 1272 0.1;
#X obj 1160 1477 outlet;
#X obj 1160 1433 bng 25 250 50 0 empty empty empty 17 7 0 10 #e4e4e4 #4d4d4d #373737;
#X obj 494 128 value speaker1;
#X obj 636 417 FearThresholdSearchingSpeaker1;
#X obj 529 623 crusher~ 0 0;
#X obj 680 1197 *~;
#X obj 948 923 knob 50 0 1 0 0 empty empty #E4E4E4 #B7B7B7 #4D4D4D 1 0 0 0 1 270 0 0 0;
#X floatatom 694 1035 5 0 0 0 - - - 12;
#X floatatom 814 1035 5 0 0 0 - - - 12;
#X obj 609 1092 brown~;
#X obj 680 1144 bob~;
#X obj 694 991 rand.i 900 2500;
#X obj 814 991 rand.i 900 2500;
#X obj 694 770 bng 25 250 50 0 empty empty empty 17 7 0 10 #e4e4e4 #4d4d4d #373737;
#X msg 595 885 stop;
#X obj 694 938 metro 50;
#X msg 898 841 0.4;
#X msg 950 841 0;
#X obj 529 770 dac~ 1;
#X obj 680 1261 dac~ 1;
#X obj 1318 783 dac~ 4;
#X obj 1445 488 FearThresholdSearchingSpeaker4;
#X obj 1318 640 crusher~ 0 0;
#X obj 1542 1076 *~;
#X obj 1810 802 knob 50 0 1 0 0 empty empty #E4E4E4 #B7B7B7 #4D4D4D 1 0 0 0 1 270 0 0 0;
#X floatatom 1556 914 5 0 0 0 - - - 12;
#X floatatom 1676 914 5 0 0 0 - - - 12;
#X obj 1471 971 brown~;
#X obj 1542 1023 bob~;
#X obj 1556 870 rand.i 900 2500;
#X obj 1676 870 rand.i 900 2500;
#X obj 1556 649 bng 25 250 50 0 empty empty empty 17 7 0 10 #e4e4e4 #4d4d4d #373737;
#X msg 1457 764 stop;
#X obj 1556 817 metro 50;
#X msg 1760 720 0.4;
#X msg 1812 720 0;
#X obj 1457 722 delay 4000;
#X obj 1542 1140 dac~ 4;
#X obj 525 711 *~;
#X obj 595 843 delay 300;
#X obj 1319 720 *~;
#X msg 1371 697 0.025;
#X msg 663 629 40;
#X msg 716 592 loadbang;
#X msg 1430 640 loadbang;
#X obj 720 550 r volume_on;
#X obj 1370 662 r volume_on;
#X text 716 143 if speaker 1 is dead \, speaker 4 will take its place;
#X text 1022 128 This logic is present in the "Hello" and "SeeU" patches for speaker 1 \, 2 and 3;
#X connect 0 0 66 0;
#X connect 2 0 11 0;
#X connect 2 1 42 0;
#X connect 3 0 66 0;
#X connect 4 0 5 0;
#X connect 5 0 6 0;
#X connect 6 0 15 0;
#X connect 6 0 30 0;
#X connect 7 0 68 0;
#X connect 8 0 7 1;
#X connect 9 0 8 0;
#X connect 9 0 16 0;
#X connect 10 0 8 0;
#X connect 10 0 4 0;
#X connect 11 0 10 0;
#X connect 12 0 8 0;
#X connect 12 0 18 0;
#X connect 13 0 8 0;
#X connect 13 0 17 0;
#X connect 14 0 8 0;
#X connect 14 0 26 0;
#X connect 15 0 20 0;
#X connect 16 0 23 0;
#X connect 17 0 21 0;
#X connect 18 0 24 0;
#X connect 19 0 22 0;
#X connect 20 0 9 0;
#X connect 21 0 12 0;
#X connect 22 0 14 0;
#X connect 23 0 13 0;
#X connect 24 0 31 0;
#X connect 25 0 8 0;
#X connect 25 0 34 0;
#X connect 26 0 29 0;
#X connect 27 0 28 0;
#X connect 28 0 25 0;
#X connect 29 0 32 0;
#X connect 30 0 7 0;
#X connect 31 0 8 0;
#X connect 31 0 19 0;
#X connect 32 0 27 0;
#X connect 32 0 8 0;
#X connect 34 0 33 0;
#X connect 35 0 36 0;
#X connect 36 0 37 0;
#X connect 37 0 46 0;
#X connect 37 0 61 0;
#X connect 38 0 86 0;
#X connect 39 0 38 1;
#X connect 40 0 39 0;
#X connect 40 0 47 0;
#X connect 41 0 39 0;
#X connect 41 0 35 0;
#X connect 42 0 41 0;
#X connect 43 0 39 0;
#X connect 43 0 49 0;
#X connect 44 0 39 0;
#X connect 44 0 48 0;
#X connect 45 0 39 0;
#X connect 45 0 57 0;
#X connect 46 0 51 0;
#X connect 47 0 54 0;
#X connect 48 0 52 0;
#X connect 49 0 55 0;
#X connect 50 0 53 0;
#X connect 51 0 40 0;
#X connect 52 0 43 0;
#X connect 53 0 45 0;
#X connect 54 0 44 0;
#X connect 55 0 62 0;
#X connect 56 0 39 0;
#X connect 56 0 65 0;
#X connect 57 0 60 0;
#X connect 58 0 59 0;
#X connect 59 0 56 0;
#X connect 60 0 63 0;
#X connect 61 0 38 0;
#X connect 62 0 39 0;
#X connect 62 0 50 0;
#X connect 63 0 58 0;
#X connect 63 0 39 0;
#X connect 65 0 64 0;
#X connect 66 0 2 0;
#X connect 66 0 1 0;
#X connect 67 0 68 1;
#X connect 67 1 68 2;
#X connect 68 0 102 0;
#X connect 69 0 83 0;
#X connect 70 0 69 1;
#X connect 71 0 74 1;
#X connect 72 0 74 2;
#X connect 73 0 74 0;
#X connect 74 0 69 0;
#X connect 75 0 71 0;
#X connect 76 0 72 0;
#X connect 77 0 79 0;
#X connect 77 0 80 0;
#X connect 77 0 103 0;
#X connect 78 0 81 0;
#X connect 78 0 79 0;
#X connect 79 0 75 0;
#X connect 79 0 76 0;
#X connect 80 0 70 0;
#X connect 81 0 70 0;
#X connect 85 0 86 1;
#X connect 85 1 86 2;
#X connect 86 0 104 0;
#X connect 87 0 101 0;
#X connect 88 0 87 1;
#X connect 89 0 92 1;
#X connect 90 0 92 2;
#X connect 91 0 92 0;
#X connect 92 0 87 0;
#X connect 93 0 89 0;
#X connect 94 0 90 0;
#X connect 95 0 97 0;
#X connect 95 0 98 0;
#X connect 95 0 100 0;
#X connect 96 0 99 0;
#X connect 96 0 97 0;
#X connect 97 0 93 0;
#X connect 97 0 94 0;
#X connect 98 0 88 0;
#X connect 99 0 88 0;
#X connect 100 0 96 0;
#X connect 102 0 82 0;
#X connect 103 0 78 0;
#X connect 104 0 84 0;
#X connect 105 0 104 1;
#X connect 106 0 102 1;
#X connect 107 0 106 0;
#X connect 108 0 105 0;
#X connect 109 0 106 0;
#X connect 110 0 105 0;
