#N canvas 827 239 527 327 12;
#X obj 734 -22 inlet;
#X obj 670 2271 outlet;
#X text 655 2295 arduino breaks down \; (out of sync);
#X text 672 -70 start playing in harmony;
#X obj 155 357 inlet;
#X obj 1628 -13 inlet;
#X text 190 235 arduino dead trigger;
#X text 1678 -133 arduino fear trigger, f 17;
#X obj 226 357 inlet;
#X obj 301 357 inlet;
#X obj 374 359 inlet;
#X text 135 289 1, f 3;
#X text 208 289 2, f 3;
#X text 283 289 3, f 3;
#X text 362 291 4, f 3;
#X obj 1702 -13 inlet;
#X obj 1776 -13 inlet;
#X obj 1857 -13 inlet;
#X text 1636 -79 1, f 3;
#X text 1709 -79 2, f 3;
#X text 1784 -79 3, f 3;
#X text 1863 -77 4, f 3;
#X obj 996 1552 panic;
#X obj 1133 1296 bng 25 250 50 0 empty empty empty 17 7 0 10 #e4e4e4 #4d4d4d #373737;
#X msg 907 1394 stop;
#X obj 933 1298 tgl 22 0 empty empty empty 17 7 0 10 #d0d0d0 #404040 #000000 0 1;
#X obj 860 1362 select 1 0;
#X obj 1715 1296 bng 25 250 50 0 empty empty empty 17 7 0 10 #e4e4e4 #4d4d4d #373737;
#X msg 1488 1394 stop;
#X obj 1513 1298 tgl 22 0 empty empty empty 17 7 0 10 #d0d0d0 #404040 #000000 0 1;
#X obj 1440 1362 select 1 0;
#X obj 2118 1552 panic;
#X obj 2257 1296 bng 25 250 50 0 empty empty empty 17 7 0 10 #e4e4e4 #4d4d4d #373737;
#X msg 2028 1394 stop;
#X obj 2053 1298 tgl 22 0 empty empty empty 17 7 0 10 #d0d0d0 #404040 #000000 0 1;
#X obj 1980 1362 select 1 0;
#X obj 2568 1552 panic;
#X obj 2700 1298 bng 25 250 50 0 empty empty empty 17 7 0 10 #e4e4e4 #4d4d4d #373737;
#X msg 2478 1394 stop;
#X obj 2503 1298 tgl 22 0 empty empty empty 17 7 0 10 #d0d0d0 #404040 #000000 0 1;
#X obj 2430 1362 select 1 0;
#X msg 3045 391 0;
#X text 995 2001 bass;
#X obj 1778 39 bng 25 250 50 0 empty empty empty 17 7 0 10 #e4e4e4 #4d4d4d #373737;
#X obj 1857 39 bng 25 250 50 0 empty empty empty 17 7 0 10 #e4e4e4 #4d4d4d #373737;
#X obj 1702 39 bng 25 250 50 0 empty empty empty 17 7 0 10 #e4e4e4 #4d4d4d #373737;
#X obj 1628 39 bng 25 250 50 0 empty empty empty 17 7 0 10 #e4e4e4 #4d4d4d #373737;
#X msg 2900 2013 level \$1;
#X floatatom 2900 1956 9 0 1 0 - - - 12;
#X obj 2932 1883 loadbang;
#X msg 2932 1911 0.25;
#X obj 2832 1983 * 3;
#X msg 2833 2014 level \$1;
#X obj 1577 1552 panic;
#X obj 1577 1298 spigot;
#X msg 1653 1282 0;
#X obj 2117 1298 spigot;
#X obj 995 1298 spigot;
#X obj 2567 1298 spigot;
#X msg 2192 1282 0;
#X msg 2635 1282 0;
#X msg 1055 1282 0;
#X obj 834 249 bng 73 250 50 0 empty empty empty 17 7 0 10 #e4e4e4 #4d4d4d #373737;
#X obj 2988 261 bng 73 250 50 0 empty empty empty 17 7 0 10 #e4e4e4 #4d4d4d #373737;
#X text 850 202 start;
#X text 2994 204 stop;
#X obj -802 243 r play_speed;
#X floatatom -1031 628 5 0 0 0 - - - 12;
#X obj -1032 542 float;
#X obj -945 329 tgl 25 0 empty empty empty 17 7 0 10 #e4e4e4 #4d4d4d #373737 0 1;
#X floatatom -802 298 11 0 0 0 - - - 12;
#X floatatom -916 765 5 0 0 0 - - - 16;
#X msg -1159 493 0;
#X floatatom -1030 849 5 0 0 0 - - - 16;
#X text -707 289 playspeed in %;
#X obj -976 542 + 1;
#X obj -1032 494 t b b;
#X obj -875 494 t b b;
#X obj -1030 776 -;
#X obj -873 542 float;
#X floatatom -873 601 5 0 0 0 - - - 12;
#X obj -812 542 + 0;
#X obj -873 574 * 0.01;
#X floatatom -967 599 5 0 0 0 - - - 12;
#X obj -916 658 / 0;
#X floatatom -916 694 5 0 0 0 - - - 12;
#X obj -945 408 t b b;
#X text -1199 615 elapsed time in seconds;
#X text -862 680 average play speed of fear;
#X obj -1029 1080 bng 25 250 50 0 empty empty empty 17 7 0 10 #e4e4e4 #4d4d4d #373737;
#X obj -1029 1000 delay 0;
#X obj -1030 888 t b f;
#X obj -1000 973 * 1000;
#X obj -1171 885 bng 25 250 50 0 empty empty empty 17 7 0 10 #e4e4e4 #4d4d4d #373737;
#X obj -1186 809 == 1;
#X obj -1129 809 == 0;
#X obj -1171 846 spigot;
#X obj -1330 889 bng 25 250 50 0 empty empty empty 17 7 0 10 #e4e4e4 #4d4d4d #373737;
#X obj -1330 850 spigot;
#X obj -1288 813 == 1;
#X obj -1345 813 == 0;
#X obj -877 328 > 100;
#X obj -1339 771 change;
#X obj -993 932 moses 0.1;
#X obj -916 729 * 0;
#X obj -1030 812 * -1;
#X obj -1196 1037 + 100;
#X obj -1311 1087 delay 100;
#X obj -945 374 metro 10;
#X obj -1031 599 * 0.01;
#X obj 1546 803 death_trigger;
#X obj 2088 803 death_trigger;
#X obj 2573 803 death_trigger;
#X obj 1003 803 death_trigger;
#X obj 1577 1507 midi waterlelies_trumpet1.mid;
#X obj 2118 1507 midi waterlelies_trumpet2.mid;
#X obj 2568 1507 midi waterlelies_strings.mid;
#X obj 301 410 bng 25 250 50 0 empty empty empty 17 7 0 10 #e4e4e4 #4d4d4d #373737;
#X obj 380 410 bng 25 250 50 0 empty empty empty 17 7 0 10 #e4e4e4 #4d4d4d #373737;
#X obj 225 410 bng 25 250 50 0 empty empty empty 17 7 0 10 #e4e4e4 #4d4d4d #373737;
#X obj 151 410 bng 25 250 50 0 empty empty empty 17 7 0 10 #e4e4e4 #4d4d4d #373737;
#X obj 734 440 t f f;
#X text 111 1621 na dead trigger 2x start knop nodig \; snelheid bastraction maken \; frustratie sound maken \; andere midi integreren \; \; random 100 ms delay???;
#X obj 511 1369 speed_regulator_trumpet1;
#X obj 2957 1325 speed_regulator_trumpet2;
#X obj 3382 1453 speed_regulator_strings;
#X obj 131 1470 speed_regulator_bass;
#X obj 479 1194 bng 25 250 50 0 empty empty empty 17 7 0 10 #e4e4e4 #4d4d4d #373737;
#X obj 519 1194 bng 25 250 50 0 empty empty empty 17 7 0 10 #e4e4e4 #4d4d4d #373737;
#X obj 563 1194 bng 25 250 50 0 empty empty empty 17 7 0 10 #e4e4e4 #4d4d4d #373737;
#X obj 390 1194 bng 25 250 50 0 empty empty empty 17 7 0 10 #e4e4e4 #4d4d4d #373737;
#X obj 434 1194 bng 25 250 50 0 empty empty empty 17 7 0 10 #e4e4e4 #4d4d4d #373737;
#X obj 90 1295 bng 25 250 50 0 empty empty empty 17 7 0 10 #e4e4e4 #4d4d4d #373737;
#X obj 130 1295 bng 25 250 50 0 empty empty empty 17 7 0 10 #e4e4e4 #4d4d4d #373737;
#X obj 174 1295 bng 25 250 50 0 empty empty empty 17 7 0 10 #e4e4e4 #4d4d4d #373737;
#X obj 1 1295 bng 25 250 50 0 empty empty empty 17 7 0 10 #e4e4e4 #4d4d4d #373737;
#X obj 45 1295 bng 25 250 50 0 empty empty empty 17 7 0 10 #e4e4e4 #4d4d4d #373737;
#X obj 3129 1172 bng 25 250 50 0 empty empty empty 17 7 0 10 #e4e4e4 #4d4d4d #373737;
#X obj 3169 1172 bng 25 250 50 0 empty empty empty 17 7 0 10 #e4e4e4 #4d4d4d #373737;
#X obj 3213 1172 bng 25 250 50 0 empty empty empty 17 7 0 10 #e4e4e4 #4d4d4d #373737;
#X obj 3040 1172 bng 25 250 50 0 empty empty empty 17 7 0 10 #e4e4e4 #4d4d4d #373737;
#X obj 3084 1172 bng 25 250 50 0 empty empty empty 17 7 0 10 #e4e4e4 #4d4d4d #373737;
#X obj 3555 1324 bng 25 250 50 0 empty empty empty 17 7 0 10 #e4e4e4 #4d4d4d #373737;
#X obj 3595 1324 bng 25 250 50 0 empty empty empty 17 7 0 10 #e4e4e4 #4d4d4d #373737;
#X obj 3639 1324 bng 25 250 50 0 empty empty empty 17 7 0 10 #e4e4e4 #4d4d4d #373737;
#X obj 3466 1324 bng 25 250 50 0 empty empty empty 17 7 0 10 #e4e4e4 #4d4d4d #373737;
#X obj 3510 1324 bng 25 250 50 0 empty empty empty 17 7 0 10 #e4e4e4 #4d4d4d #373737;
#X obj 2099 531 bng 25 250 50 0 empty empty empty 17 7 0 10 #e4e4e4 #4d4d4d #373737;
#X obj 2103 585 delay;
#X obj 2103 624 bng 25 250 50 0 empty empty empty 17 7 0 10 #e4e4e4 #4d4d4d #373737;
#X msg 2103 667 continue;
#X obj 1556 531 bng 25 250 50 0 empty empty empty 17 7 0 10 #e4e4e4 #4d4d4d #373737;
#X obj 1560 585 delay;
#X obj 1560 624 bng 25 250 50 0 empty empty empty 17 7 0 10 #e4e4e4 #4d4d4d #373737;
#X msg 1560 667 continue;
#X obj 2572 529 bng 25 250 50 0 empty empty empty 17 7 0 10 #e4e4e4 #4d4d4d #373737;
#X obj 2576 585 delay;
#X obj 2576 624 bng 25 250 50 0 empty empty empty 17 7 0 10 #e4e4e4 #4d4d4d #373737;
#X msg 2576 667 continue;
#X obj 1025 536 bng 25 250 50 0 empty empty empty 17 7 0 10 #e4e4e4 #4d4d4d #373737;
#X obj 1029 585 delay;
#X obj 1029 624 bng 25 250 50 0 empty empty empty 17 7 0 10 #e4e4e4 #4d4d4d #373737;
#X msg 1029 667 continue;
#X obj 1616 563 0;
#X obj 627 1439 bng 25 250 50 0 empty empty empty 17 7 0 10 #e4e4e4 #4d4d4d #373737;
#X obj 2146 560 0;
#X obj 1078 555 0;
#X obj 2622 552 0;
#X obj 216 1521 bng 25 250 50 0 empty empty empty 17 7 0 10 #e4e4e4 #4d4d4d #373737;
#X obj 3039 1373 bng 25 250 50 0 empty empty empty 17 7 0 10 #e4e4e4 #4d4d4d #373737;
#X obj 3466 1501 bng 25 250 50 0 empty empty empty 17 7 0 10 #e4e4e4 #4d4d4d #373737;
#X floatatom 3103 505 34 0 0 0 - - - 36;
#X floatatom -62 1982 34 0 0 0 - - - 36;
#X obj 75 888 r speaker2 100;
#X obj 127 914 r speaker2 120;
#X obj 177 942 r speaker2 150;
#X obj 219 972 r speaker2 180;
#X obj 261 1002 r speaker2 200;
#X obj 3263 859 r speaker3 100;
#X obj 3263 895 r speaker3 120;
#X obj 3263 931 r speaker3 150;
#X obj 3263 967 r speaker3 180;
#X obj 3263 1003 r speaker3 200;
#X obj 3686 1001 r speaker4 100;
#X obj 3686 1037 r speaker4 120;
#X obj 3686 1073 r speaker4 150;
#X obj 3686 1109 r speaker4 180;
#X obj 3686 1145 r speaker4 200;
#X listbox 993 1959 9 0 0 0 - - - 0;
#X obj 993 2071 output~;
#X obj 996 1759 midiparse;
#X obj 996 1786 unpack 0 0;
#X floatatom 996 1812 5 0 0 0 - - - 12;
#X floatatom 1048 1812 5 0 0 0 - - - 12;
#X obj 996 1883 + 0;
#X obj 1072 1868 + 0;
#X floatatom 942 1801 5 0 0 0 - - - 12;
#X floatatom 1104 1801 5 0 0 0 - - - 12;
#X obj 1038 1840 moses 1;
#X obj 1072 1894 clip 1 127;
#X msg 897 1947 pgm \$1 1;
#X floatatom 873 1909 5 0 0 0 - - - 16;
#X obj 996 1909 pack 0 0 1;
#X msg 905 1749 24;
#X msg 964 1751 36;
#X text 968 2157 bass;
#X msg 814 1759 12;
#X obj 993 2013 *~ 16;
#X msg 781 1886 0;
#X obj 993 1987 sfont~ sf/chiptune.sf2;
#X msg 854 1837 5;
#X text 2088 2152 trumpet 2;
#X text 2571 2141 strings;
#X listbox 1558 1947 9 0 0 0 - - - 0;
#X obj 1561 1747 midiparse;
#X obj 1561 1774 unpack 0 0;
#X floatatom 1561 1800 5 0 0 0 - - - 12;
#X floatatom 1613 1800 5 0 0 0 - - - 12;
#X obj 1561 1871 + 0;
#X obj 1637 1856 + 0;
#X floatatom 1507 1789 5 0 0 0 - - - 12;
#X floatatom 1669 1789 5 0 0 0 - - - 12;
#X obj 1603 1828 moses 1;
#X obj 1637 1882 clip 1 127;
#X floatatom 1451 1881 5 0 0 0 - - - 12;
#X obj 1561 1897 pack 0 0 2;
#X msg 1462 1935 pgm \$1 2;
#X obj 1558 2066 output~;
#X obj 1558 2017 *~ 4;
#X text 1533 2152 trumpet 1;
#X listbox 2113 1947 9 0 0 0 - - - 0;
#X obj 2116 1747 midiparse;
#X obj 2116 1774 unpack 0 0;
#X floatatom 2116 1800 5 0 0 0 - - - 12;
#X floatatom 2168 1800 5 0 0 0 - - - 12;
#X obj 2116 1871 + 0;
#X obj 2192 1856 + 0;
#X floatatom 2062 1789 5 0 0 0 - - - 12;
#X floatatom 2224 1789 5 0 0 0 - - - 12;
#X obj 2158 1828 moses 1;
#X obj 2192 1882 clip 1 127;
#X floatatom 2006 1881 5 0 0 0 - - - 12;
#X obj 2116 1897 pack 0 0 2;
#X obj 2113 2066 output~;
#X obj 2113 2017 *~ 4;
#X msg 2017 1747 12;
#X listbox 2596 1952 9 0 0 0 - - - 0;
#X obj 2599 1752 midiparse;
#X obj 2599 1779 unpack 0 0;
#X floatatom 2599 1805 5 0 0 0 - - - 12;
#X floatatom 2651 1805 5 0 0 0 - - - 12;
#X obj 2599 1876 + 0;
#X obj 2675 1861 + 0;
#X floatatom 2545 1794 5 0 0 0 - - - 12;
#X floatatom 2707 1794 5 0 0 0 - - - 12;
#X obj 2641 1833 moses 1;
#X obj 2675 1887 clip 1 127;
#X floatatom 2489 1886 5 0 0 0 - - - 12;
#X obj 2599 1902 pack 0 0 2;
#X obj 2596 2072 output~;
#X obj 2596 2022 *~ 4;
#X msg 2500 1752 12;
#X msg 2500 1940 pgm \$1 2;
#X msg 2017 1935 pgm \$1 2;
#X msg 1462 1747 12;
#X msg 2452 1841 6;
#X msg 1442 1832 4;
#X msg 2000 1830 9;
#X obj 1558 1991 sfont~ sf/chiptune.sf2;
#X obj 2113 1991 sfont~ sf/chiptune.sf2;
#X obj 2596 1996 sfont~ sf/chiptune.sf2;
#X obj -362 964 r speaker1 100;
#X obj -310 990 r speaker1 120;
#X obj -260 1018 r speaker1 150;
#X obj -218 1048 r speaker1 180;
#X obj -166 1076 r speaker1 200;
#X obj 1675 803 pause&play;
#X obj 2206 803 pause&play;
#X obj 2694 803 pause&play;
#X obj 1133 803 pause&play;
#X obj 2428 1788 loadbang;
#X obj 1407 1788 loadbang, f 8;
#X obj 1938 1776 loadbang;
#X obj 749 1809 loadbang;
#X msg 730 400 1;
#X msg 632 555 loop 1;
#X obj 996 1507 midi waterlelies_bass.mid;
#X msg 1020 1381 1;
#X connect 0 0 284 0;
#X connect 5 0 46 0;
#X connect 15 0 45 0;
#X connect 16 0 43 0;
#X connect 17 0 44 0;
#X connect 22 0 190 0;
#X connect 23 0 22 0;
#X connect 24 0 57 0;
#X connect 25 0 26 0;
#X connect 25 0 57 0;
#X connect 26 1 24 0;
#X connect 27 0 53 0;
#X connect 28 0 54 0;
#X connect 29 0 30 0;
#X connect 29 0 54 0;
#X connect 30 1 28 0;
#X connect 30 2 28 0;
#X connect 31 0 231 0;
#X connect 32 0 31 0;
#X connect 33 0 56 0;
#X connect 34 0 35 0;
#X connect 34 0 56 0;
#X connect 35 1 33 0;
#X connect 36 0 247 0;
#X connect 37 0 36 0;
#X connect 38 0 58 0;
#X connect 39 0 40 0;
#X connect 39 0 58 0;
#X connect 40 1 38 0;
#X connect 41 0 39 0 32.................wJ...Ld+++erB...i2+++i2....;
#X connect 41 0 29 0 32.................yJ...Tf9+++rB...En+++i2....;
#X connect 41 0 25 0 32.................wJ...D78++erB...Ae+++i2....;
#X connect 41 0 34 0 32.................yJ...DB++++rB...gv+++i2....;
#X connect 41 0 276 1 64.................jE...T5+++OYA...k9+++SV...vX8+++jE...LV+++OYA...7q+++SV....+5+++IF....;
#X connect 41 0 277 1 48.................kE...X5+++eYA...l9+++SV...vC8+++jE...7P+++ehA...;
#X connect 41 0 278 1 48.................lE...X5+++uYA...l9+++WV...v89+++kE...bu+++ehA...;
#X connect 41 0 279 1 64.................jE...X5+++OYA...l9+++WV...fO7+++kE...3C+++OYA...di+++SV...f23+++IF....;
#X connect 43 0 140 0;
#X connect 43 0 276 1 32.................WA...Hx++++U....h7+++uV....;
#X connect 43 0 277 1 32.................GB...LE...vg....SA...7V....;
#X connect 43 0 277 0 32.................ZB...vA...fl....b....7V....;
#X connect 43 0 278 1 32.................RC...vX...fz....LF...bW....;
#X connect 43 0 279 1 32.................o....vb+++eJ....L2+++mV....;
#X connect 44 0 145 0;
#X connect 44 0 276 1 32.................fA...Ls+++OX....S6+++2V....;
#X connect 44 0 277 1 32.................BB...P....ff....D....DW....;
#X connect 44 0 278 0 32.................NC...XP...fy....FD...jW....;
#X connect 44 0 278 1 32.................pC...zS...f5....8D...jW....;
#X connect 44 0 279 1 32.................y....zW++++L....80+++uV....;
#X connect 45 0 130 0;
#X connect 45 0 276 1 32.................SA...31++++T....t8+++2V....;
#X connect 45 0 277 1 32.................OB...7I...vi....eB...DW....;
#X connect 45 0 278 1 32.................aC...fc...v1....XG...jW....;
#X connect 45 0 279 1 32.................j....fg+++OI....X3+++uV....;
#X connect 45 0 276 0 32.................OA...X9++++S....l++++Ot....;
#X connect 46 0 135 0;
#X connect 46 0 277 1 32.................VB...jN...fk....oC...DW....;
#X connect 46 0 278 1 32.................hC...Hh...f3....hH...jW....;
#X connect 46 0 279 0 32.................V....rh+++uE....q3+++uV....;
#X connect 46 0 279 1 32.................c....Hl+++eG....h4+++uV....;
#X connect 46 0 276 1 32.................IA...HH...PR....BB...Lt....;
#X connect 47 0 259 0;
#X connect 47 0 243 0;
#X connect 47 0 227 0;
#X connect 48 0 47 0;
#X connect 48 0 51 0;
#X connect 49 0 50 0;
#X connect 50 0 48 0;
#X connect 51 0 52 0;
#X connect 52 0 189 0;
#X connect 53 0 214 0;
#X connect 54 0 114 0;
#X connect 55 0 54 1;
#X connect 56 0 115 0;
#X connect 57 0 286 0;
#X connect 58 0 116 0;
#X connect 59 0 56 1;
#X connect 60 0 58 1;
#X connect 61 0 57 1;
#X connect 62 0 284 0;
#X connect 62 0 165 0 32.................v.....RA...L....fT....I....;
#X connect 62 0 167 0 32.................y....vuA..vL....7a...fH....;
#X connect 62 0 163 0 32.................w....3v...PL....NL...LI....;
#X connect 62 0 166 0 32.................w....bO...PL....2C...fI....;
#X connect 63 0 41 0;
#X connect 66 0 70 0;
#X connect 67 0 78 0;
#X connect 67 0 104 0;
#X connect 68 0 75 0;
#X connect 68 0 83 0;
#X connect 68 0 109 0;
#X connect 69 0 94 0;
#X connect 69 0 95 0;
#X connect 69 0 102 0;
#X connect 69 0 99 0;
#X connect 69 0 108 0;
#X connect 70 0 81 1;
#X connect 70 0 101 0;
#X connect 71 0 78 1;
#X connect 72 0 68 1;
#X connect 72 0 79 1;
#X connect 72 0 68 0;
#X connect 72 0 79 0;
#X connect 73 0 91 0;
#X connect 75 0 68 1;
#X connect 76 0 68 0;
#X connect 76 1 75 0;
#X connect 77 0 79 0;
#X connect 77 1 81 0;
#X connect 78 0 105 0;
#X connect 79 0 81 0;
#X connect 79 0 82 0;
#X connect 80 0 84 0;
#X connect 81 0 79 1;
#X connect 82 0 80 0;
#X connect 83 0 84 1;
#X connect 84 0 85 0;
#X connect 85 0 104 1;
#X connect 86 0 77 0;
#X connect 86 1 76 0;
#X connect 90 0 89 0;
#X connect 91 0 90 0;
#X connect 91 1 103 0;
#X connect 92 0 90 1;
#X connect 92 0 106 0;
#X connect 94 0 96 0;
#X connect 95 0 96 1;
#X connect 96 0 93 0;
#X connect 97 0 107 0;
#X connect 98 0 97 0;
#X connect 99 0 98 1;
#X connect 100 0 98 0;
#X connect 101 0 69 0;
#X connect 102 0 100 0;
#X connect 103 1 92 0;
#X connect 104 0 71 0;
#X connect 105 0 73 0;
#X connect 108 0 86 0;
#X connect 109 0 67 0;
#X connect 110 0 27 0;
#X connect 110 0 55 0;
#X connect 110 0 61 0;
#X connect 110 0 23 0;
#X connect 110 0 59 0;
#X connect 110 0 32 0;
#X connect 110 0 60 0;
#X connect 110 0 37 0;
#X connect 110 1 54 0;
#X connect 110 1 57 0;
#X connect 110 1 56 0;
#X connect 110 1 58 0;
#X connect 110 2 243 0;
#X connect 110 2 259 0;
#X connect 110 2 189 0;
#X connect 111 0 32 0;
#X connect 111 0 59 0;
#X connect 111 0 60 0;
#X connect 111 0 37 0;
#X connect 111 0 55 0;
#X connect 111 0 27 0;
#X connect 111 0 61 0;
#X connect 111 0 23 0;
#X connect 111 1 56 0;
#X connect 111 1 58 0;
#X connect 111 1 54 0;
#X connect 111 1 57 0;
#X connect 111 2 227 0;
#X connect 111 2 259 0;
#X connect 111 2 189 0;
#X connect 112 0 37 0;
#X connect 112 0 60 0;
#X connect 112 0 32 0;
#X connect 112 0 59 0;
#X connect 112 0 27 0;
#X connect 112 0 55 0;
#X connect 112 0 23 0;
#X connect 112 0 61 0;
#X connect 112 1 58 0;
#X connect 112 1 56 0;
#X connect 112 1 54 0;
#X connect 112 1 57 0;
#X connect 112 2 227 0;
#X connect 112 2 243 0;
#X connect 112 2 189 0;
#X connect 113 0 23 0;
#X connect 113 0 61 0;
#X connect 113 0 55 0;
#X connect 113 0 27 0;
#X connect 113 0 59 0;
#X connect 113 0 32 0;
#X connect 113 0 60 0;
#X connect 113 0 37 0;
#X connect 113 1 57 0;
#X connect 113 1 54 0;
#X connect 113 1 56 0;
#X connect 113 1 58 0;
#X connect 113 2 227 0;
#X connect 113 2 243 0;
#X connect 113 2 259 0;
#X connect 114 0 53 0;
#X connect 115 0 31 0;
#X connect 116 0 36 0;
#X connect 117 0 111 0 32.................cD...ruA..PGA...6a....W....;
#X connect 118 0 112 0 32.................OD...DIB..vCA...Qh....W....;
#X connect 119 0 110 0 32.................qD...jRA..vJA...oT....W....;
#X connect 120 0 113 0 32.................3D...P0....NA...TM....W....;
#X connect 121 0 25 0 32.................yK...TL...v7B...EC...bz....;
#X connect 121 0 34 0 32.................zK...TRA...8B...kT...bz....;
#X connect 121 0 29 0 32.................2K...jv...v8B...IL...bz....;
#X connect 121 0 39 0 32.................1K...btA..f8B...ma...bz....;
#X connect 121 1 54 1 32.................lK...b0...f4B...WM...bz....;
#X connect 121 1 57 1 32.................jK...DQ....4B...QD...bz....;
#X connect 121 1 56 1 32.................hK...LWA..f3B...yU...bz....;
#X connect 121 1 58 1 32.................fK...TyA...3B...0b...bz....;
#X connect 121 1 50 0 32.................Pa...rHB...zF...Kh...vZA...;
#X connect 123 0 53 0;
#X connect 123 1 114 0;
#X connect 123 2 45 0;
#X connect 123 3 164 0;
#X connect 123 3 114 0;
#X connect 123 4 114 0;
#X connect 123 5 152 1;
#X connect 123 5 172 0;
#X connect 124 0 31 0;
#X connect 124 1 115 0;
#X connect 124 2 43 0;
#X connect 124 3 169 0;
#X connect 124 3 115 0;
#X connect 124 4 115 0;
#X connect 124 5 171 0;
#X connect 124 5 148 1;
#X connect 125 0 36 0;
#X connect 125 1 116 0;
#X connect 125 2 44 0;
#X connect 125 3 116 0;
#X connect 125 3 170 0;
#X connect 125 4 116 0;
#X connect 125 5 156 1;
#X connect 126 0 22 0;
#X connect 126 1 286 0;
#X connect 126 2 46 0;
#X connect 126 3 168 0;
#X connect 126 3 286 0;
#X connect 126 4 286 0;
#X connect 126 5 160 1;
#X connect 127 0 123 2;
#X connect 128 0 123 3;
#X connect 129 0 123 4;
#X connect 130 0 123 0;
#X connect 131 0 123 1;
#X connect 132 0 126 2;
#X connect 133 0 126 3;
#X connect 134 0 126 4;
#X connect 135 0 126 0;
#X connect 136 0 126 1;
#X connect 137 0 124 2;
#X connect 138 0 124 3;
#X connect 139 0 124 4;
#X connect 140 0 124 0;
#X connect 141 0 124 1;
#X connect 142 0 125 2;
#X connect 143 0 125 3;
#X connect 144 0 125 4;
#X connect 145 0 125 0;
#X connect 146 0 125 1;
#X connect 147 0 148 0;
#X connect 148 0 149 0;
#X connect 149 0 150 0;
#X connect 150 0 56 0;
#X connect 151 0 152 0;
#X connect 152 0 153 0;
#X connect 153 0 154 0;
#X connect 154 0 54 0;
#X connect 155 0 156 0;
#X connect 156 0 157 0;
#X connect 157 0 158 0;
#X connect 158 0 58 0;
#X connect 159 0 160 0;
#X connect 160 0 161 0;
#X connect 161 0 162 0;
#X connect 162 0 57 0;
#X connect 163 0 152 1;
#X connect 164 0 163 0;
#X connect 165 0 148 1;
#X connect 165 0 171 0;
#X connect 166 0 160 1;
#X connect 167 0 156 1;
#X connect 168 0 166 0;
#X connect 169 0 165 0;
#X connect 170 0 167 0;
#X connect 173 0 130 0;
#X connect 174 0 131 0;
#X connect 175 0 127 0;
#X connect 176 0 128 0;
#X connect 177 0 129 0;
#X connect 178 0 140 0;
#X connect 179 0 141 0;
#X connect 180 0 137 0;
#X connect 181 0 138 0;
#X connect 182 0 139 0;
#X connect 183 0 145 0;
#X connect 184 0 146 0;
#X connect 185 0 142 0;
#X connect 186 0 143 0;
#X connect 187 0 144 0;
#X connect 188 0 209 0;
#X connect 190 0 191 0;
#X connect 191 0 192 0;
#X connect 191 1 193 0;
#X connect 192 0 194 0;
#X connect 193 0 198 0;
#X connect 194 0 202 0;
#X connect 195 0 199 0;
#X connect 196 0 194 1;
#X connect 197 0 195 1;
#X connect 198 0 202 1;
#X connect 198 1 195 0;
#X connect 199 0 202 1;
#X connect 200 0 209 0;
#X connect 201 0 200 0;
#X connect 202 0 188 0;
#X connect 203 0 196 0;
#X connect 204 0 196 0;
#X connect 206 0 196 0;
#X connect 207 0 189 0;
#X connect 208 0 201 0;
#X connect 209 0 207 0;
#X connect 210 0 201 0;
#X connect 213 0 268 0;
#X connect 214 0 215 0;
#X connect 215 0 216 0;
#X connect 215 1 217 0;
#X connect 216 0 218 0;
#X connect 217 0 222 0;
#X connect 218 0 225 0;
#X connect 219 0 223 0;
#X connect 220 0 218 1;
#X connect 221 0 219 1;
#X connect 222 0 225 1;
#X connect 222 1 219 0;
#X connect 223 0 225 1;
#X connect 224 0 226 0;
#X connect 225 0 213 0;
#X connect 226 0 268 0;
#X connect 228 0 227 0;
#X connect 230 0 269 0;
#X connect 231 0 232 0;
#X connect 232 0 233 0;
#X connect 232 1 234 0;
#X connect 233 0 235 0;
#X connect 234 0 239 0;
#X connect 235 0 242 0;
#X connect 236 0 240 0;
#X connect 237 0 235 1;
#X connect 238 0 236 1;
#X connect 239 0 242 1;
#X connect 239 1 236 0;
#X connect 240 0 242 1;
#X connect 241 0 263 0;
#X connect 242 0 230 0;
#X connect 244 0 243 0;
#X connect 245 0 237 0;
#X connect 246 0 270 0;
#X connect 247 0 248 0;
#X connect 248 0 249 0;
#X connect 248 1 250 0;
#X connect 249 0 251 0;
#X connect 250 0 255 0;
#X connect 251 0 258 0;
#X connect 252 0 256 0;
#X connect 253 0 251 1;
#X connect 254 0 252 1;
#X connect 255 0 258 1;
#X connect 255 1 252 0;
#X connect 256 0 258 1;
#X connect 257 0 262 0;
#X connect 258 0 246 0;
#X connect 260 0 259 0;
#X connect 261 0 253 0;
#X connect 262 0 270 0;
#X connect 263 0 269 0;
#X connect 264 0 220 0;
#X connect 265 0 257 0;
#X connect 266 0 224 0;
#X connect 267 0 241 0;
#X connect 268 0 228 0;
#X connect 269 0 244 0;
#X connect 270 0 260 0;
#X connect 271 0 135 0;
#X connect 272 0 136 0;
#X connect 273 0 132 0;
#X connect 274 0 133 0;
#X connect 275 0 134 0;
#X connect 276 0 37 0;
#X connect 276 0 32 0;
#X connect 276 0 27 0;
#X connect 276 0 23 0;
#X connect 276 1 58 0;
#X connect 276 1 56 0;
#X connect 276 1 57 0;
#X connect 276 2 159 0 48.................s5+++ys+++eq9+++b6+++2p+++uU8+++s5+++aU+++e59+++;
#X connect 276 2 147 0 48.................O6+++KH...vy9+++BB...zr++++gA...M6+++eX....49+++;
#X connect 276 2 155 0 48.................a5+++CR...vl9+++fD...ro+++OXC...a5+++C1...f39+++;
#X connect 276 3 227 0;
#X connect 276 4 48 0 32.................5D...Hl...fNA...hI...P2....;
#X connect 276 5 135 0;
#X connect 276 5 140 0;
#X connect 276 5 145 0;
#X connect 277 0 37 0;
#X connect 277 0 32 0;
#X connect 277 0 27 0;
#X connect 277 0 23 0;
#X connect 277 1 58 0;
#X connect 277 1 54 0;
#X connect 277 1 57 0;
#X connect 277 2 159 0 48.................s5+++qi+++eq9+++53+++yp++++P6+++r5+++Oz9++e59+++;
#X connect 277 2 151 0 48.................75+++Gv+++Ou9+++A7+++uq+++uU8+++65+++aU+++O49+++;
#X connect 277 2 155 0 48.................b5++++F....m9+++uA...zo+++eSA...c5+++2T...f39+++;
#X connect 277 3 243 0;
#X connect 277 4 48 0 32.................6D....S...vNA...vD...P2....;
#X connect 277 5 135 0;
#X connect 277 5 130 0;
#X connect 277 5 145 0;
#X connect 278 0 37 0;
#X connect 278 0 32 0;
#X connect 278 0 27 0;
#X connect 278 0 23 0;
#X connect 278 1 56 0;
#X connect 278 1 54 0;
#X connect 278 1 57 0;
#X connect 278 2 159 0 48.................s5+++iR+++eq9+++nz+++2p++++V4+++s5+++uU9++e59+++;
#X connect 278 2 151 0 48.................65+++um++++t9+++64+++yq+++ua6+++75+++619++O49+++;
#X connect 278 2 147 0 48.................O6+++Cy++++y9+++v7++++r+++ei8+++O6+++2X+++O49+++;
#X connect 278 3 259 0;
#X connect 278 4 48 0 32.................5D...LG...fNA...yA...jKA...;
#X connect 278 5 135 0;
#X connect 278 5 130 0;
#X connect 278 5 140 0;
#X connect 279 0 37 0;
#X connect 279 0 32 0;
#X connect 279 0 23 0;
#X connect 279 0 27 0;
#X connect 279 1 58 0;
#X connect 279 1 56 0;
#X connect 279 1 54 0;
#X connect 279 2 151 0 48.................55+++KH...ft9+++BB...rq+++ugA...65+++aX....49+++;
#X connect 279 2 147 0 48.................O6+++eS...vy9+++2D...zr+++eoC...M6+++W5....49+++;
#X connect 279 2 155 0 48.................a5++++f...vl9+++OH...ro+++ueE...a5+++6WA..f39+++;
#X connect 279 3 189 0;
#X connect 279 4 48 0 32.................7D...f6....OA...3N...P2....;
#X connect 279 5 130 0;
#X connect 279 5 140 0;
#X connect 279 5 145 0;
#X connect 279 5 227 0;
#X connect 280 0 265 0;
#X connect 281 0 266 0;
#X connect 282 0 267 0;
#X connect 283 0 210 0;
#X connect 284 0 121 0;
#X connect 286 0 22 0;
#X connect 287 0 286 0;
