#N canvas 4 100 2880 1440 12;
#X obj 179 112 bng 25 250 50 0 empty empty empty 17 7 0 10 #e4e4e4 #4d4d4d #373737;
#X obj 178 243 rand.i 900 2500;
#X floatatom 178 287 5 0 0 0 - - - 16;
#X floatatom 298 287 5 0 0 0 - - - 16;
#X obj 298 243 rand.i 900 2500;
#X obj 216 391 bob~;
#X obj 135 333 brown~;
#X msg 224 156 stop;
#X msg 301 191 0;
#X obj 411 227 knob 50 0 127 0 0 empty empty #E4E4E4 #B7B7B7 #4D4D4D 1 0 0 0 1 270 0 0 0;
#X msg 411 158 0.4;
#X obj 216 425 *~;
#X obj 178 199 metro 50;
#X obj 179 73 inlet;
#X obj 253 75 inlet;
#X obj 216 545 outlet~;
#X obj 218 486 *~;
#X msg 325 456 0.6;
#X obj 416 381 loadbang;
#X obj 396 470 r volume_on;
#X connect 0 0 10 0;
#X connect 0 0 12 0;
#X connect 1 0 2 0;
#X connect 2 0 5 1;
#X connect 3 0 5 2;
#X connect 4 0 3 0;
#X connect 5 0 11 0;
#X connect 6 0 5 0;
#X connect 7 0 8 0;
#X connect 7 0 12 0;
#X connect 8 0 9 0;
#X connect 9 0 11 1;
#X connect 10 0 9 0;
#X connect 11 0 16 0;
#X connect 12 0 1 0;
#X connect 12 0 4 0;
#X connect 13 0 0 0;
#X connect 14 0 7 0;
#X connect 16 0 15 0;
#X connect 17 0 16 1;
#X connect 18 0 17 0;
#X connect 19 0 17 0;
