#N canvas 827 239 527 327 12;
#X obj 142 211 brown~;
#X obj 142 334 bob~;
#X obj 265 211 line~;
#X obj 488 211 line~;
#X floatatom 259 159 5 0 0 0 - - - 12;
#X floatatom 485 170 5 0 0 0 - - - 12;
#X obj 171 399 dac~ 1 2;
#X floatatom 89 169 5 0 0 0 - - - 12;
#X obj 224 45 bng 25 250 50 0 empty empty empty 17 7 0 10 #e4e4e4 #4d4d4d #373737;
#X msg 297 45 stop;
#X obj 224 91 metro 100;
#X obj 259 132 rand.i 1000 1600;
#X text 68 9 cry for help;
#X connect 0 0 1 0;
#X connect 2 0 1 1;
#X connect 3 0 1 2;
#X connect 4 0 2 0;
#X connect 5 0 3 0;
#X connect 7 0 0 0;
#X connect 8 0 10 0;
#X connect 9 0 10 0;
#X connect 10 0 11 0;
#X connect 11 0 4 0;
