#N canvas 733 172 450 300 12;
#X obj 542 21 inlet;
#X obj 232 522 outlet;
#X obj 301 524 outlet;
#X obj 371 524 outlet;
#X obj 674 519 outlet;
#X obj 601 22 inlet;
#X msg 304 464 pause;
#X obj 543 59 bng 25 250 50 0 empty empty empty 17 7 0 10 #e4e4e4 #4d4d4d #373737;
#X msg 373 464 continue;
#X floatatom 674 461 9 0 1 0 - - - 12;
#X obj 674 350 vline~;
#X msg 782 310 0;
#X obj 674 423 snapshot~;
#X obj 598 368 metro 1;
#X msg 674 310 0 \, 0.5 20000;
#X obj 674 390 expr~ pow($v1 \, 2);
#X obj 664 249 t b b b;
#X obj 666 164 delay 5000;
#X msg 597 297 stop;
#X obj 532 157 delay 4000;
#X obj 370 204 delay 5000;
#X obj 474 525 outlet~;
#X obj 903 523 outlet;
#X obj 543 99 t b b;
#X obj 232 464 delay 50;
#X obj 472 185 frustration_sound;
#X connect 0 0 7 0;
#X connect 5 0 18 0;
#X connect 6 0 2 0;
#X connect 7 0 23 0;
#X connect 8 0 3 0;
#X connect 9 0 4 0;
#X connect 10 0 15 0;
#X connect 11 0 10 0;
#X connect 12 0 9 0;
#X connect 13 0 12 0;
#X connect 14 0 10 0;
#X connect 15 0 12 0;
#X connect 16 0 13 0;
#X connect 16 1 14 0;
#X connect 16 2 11 0;
#X connect 17 0 16 0;
#X connect 18 0 13 0;
#X connect 19 0 25 1;
#X connect 20 0 8 0;
#X connect 23 0 20 0;
#X connect 23 0 19 0;
#X connect 23 0 17 0;
#X connect 23 0 6 0 32.................M....Hw+++eC....R7+++qU....;
#X connect 23 0 24 0 32.................I....nr+++eB....J6+++qU....;
#X connect 23 0 25 0;
#X connect 23 1 22 0 48.................H....3J....B....tB...f....vVA...H....rU...PkA...;
#X connect 24 0 1 0;
#X connect 25 0 21 0;
