#N canvas 4 100 2880 1440 12;
#X obj 86 171 delay 200;
#X msg 86 196 reset;
#X obj 195 264 bng 25 250 50 0 empty empty empty 17 7 0 10 #e4e4e4 #4d4d4d #373737;
#X floatatom 146 264 5 0 0 0 - - - 12;
#X obj 146 41 inlet;
#X obj 146 130 t b b;
#X obj 195 324 outlet;
#X obj 146 84 bng 25 250 50 0 empty empty empty 17 7 0 10 #e4e4e4 #4d4d4d #373737;
#X obj 146 324 outlet;
#X obj 159 217 count 4;
#X text 304 129 this abstraction makes it so that a fear threshold needs to be banged 4 times in a row before actually influencing the speakers' behaviour. In addition \, this prevents one random reading from influencing the speakers' behaviour, f 35;
#X connect 0 0 1 0;
#X connect 1 0 9 0;
#X connect 2 0 6 0;
#X connect 3 0 8 0;
#X connect 4 0 7 0;
#X connect 5 0 0 0;
#X connect 5 1 9 0;
#X connect 7 0 5 0;
#X connect 9 0 3 0;
#X connect 9 1 2 0;
