#N canvas 4 100 2880 1440 12;
#X obj 135 49 inlet;
#X obj 135 361 bng 25 250 50 0 empty empty empty 17 7 0 10 #e4e4e4 #4d4d4d #373737;
#X obj 135 462 bng 25 250 50 0 empty empty empty 17 7 0 10 #e4e4e4 #4d4d4d #373737;
#X obj 135 556 bng 25 250 50 0 empty empty empty 17 7 0 10 #e4e4e4 #4d4d4d #373737;
#X msg 137 622 0;
#X floatatom 320 355 5 0 0 0 - - - 12;
#X obj 320 387 mtof;
#X obj 320 543 *~;
#X obj 320 502 sine~;
#X obj 135 707 outlet;
#X obj 135 663 bng 25 250 50 0 empty empty empty 17 7 0 10 #e4e4e4 #4d4d4d #373737;
#X msg 395 263 0.5;
#X obj 465 408 knob 37 0 1 0 0 empty empty #E4E4E4 #B7B7B7 #4D4D4D 1 0 0 0 1 270 0 0 0;
#X obj 135 267 bng 25 250 50 0 empty empty empty 17 7 0 10 #e4e4e4 #4d4d4d #373737;
#X msg 135 330 57;
#X msg 135 434 55;
#X obj 135 400 delay 150;
#X obj 135 496 delay 150;
#X msg 135 528 64;
#X obj 135 591 delay 300;
#X floatatom 181 128 5 0 0 0 - - - 12;
#X obj 135 141 sel 1;
#X obj 32 111 bng 25 250 50 0 empty empty empty 17 7 0 10 #e4e4e4 #4d4d4d #373737;
#X obj 936 368 bng 25 250 50 0 empty empty empty 17 7 0 10 #e4e4e4 #4d4d4d #373737;
#X obj 936 469 bng 25 250 50 0 empty empty empty 17 7 0 10 #e4e4e4 #4d4d4d #373737;
#X obj 936 563 bng 25 250 50 0 empty empty empty 17 7 0 10 #e4e4e4 #4d4d4d #373737;
#X msg 938 629 0;
#X floatatom 1121 362 5 0 0 0 - - - 12;
#X obj 1121 394 mtof;
#X obj 1121 550 *~;
#X obj 936 714 outlet;
#X obj 936 670 bng 25 250 50 0 empty empty empty 17 7 0 10 #e4e4e4 #4d4d4d #373737;
#X msg 1196 270 0.5;
#X obj 1266 415 knob 37 0 1 0 0 empty empty #E4E4E4 #B7B7B7 #4D4D4D 1 0 0 0 1 270 0 0 0;
#X obj 936 274 bng 25 250 50 0 empty empty empty 17 7 0 10 #e4e4e4 #4d4d4d #373737;
#X msg 936 337 57;
#X msg 936 441 55;
#X obj 936 407 delay 150;
#X obj 936 503 delay 150;
#X msg 936 535 64;
#X obj 936 598 delay 300;
#X obj 1121 509 bl.square~;
#X text 833 176 if speaker 1 is dead \, speaker 4 takes over;
#X obj 135 97 value speaker1;
#X obj 592 355 FearThresholdSearchingSpeaker1;
#X obj 320 611 crusher~ 0 0;
#X obj 564 964 *~;
#X obj 832 690 knob 50 0 1 0 0 empty empty #E4E4E4 #B7B7B7 #4D4D4D 1 0 0 0 1 270 0 0 0;
#X floatatom 578 802 5 0 0 0 - - - 12;
#X floatatom 698 802 5 0 0 0 - - - 12;
#X obj 493 859 brown~;
#X obj 564 911 bob~;
#X obj 578 758 rand.i 900 2500;
#X obj 698 758 rand.i 900 2500;
#X obj 578 537 bng 25 250 50 0 empty empty empty 17 7 0 10 #e4e4e4 #4d4d4d #373737;
#X msg 479 652 stop;
#X obj 578 705 metro 50;
#X msg 782 608 0.4;
#X msg 834 608 0;
#X obj 479 610 delay 4000;
#X obj 564 1028 dac~ 1;
#X obj 320 721 dac~ 1;
#X obj 1123 631 crusher~ 0 0;
#X obj 1123 728 dac~ 4;
#X obj 1388 355 FearThresholdSearchingSpeaker4;
#X obj 1397 971 *~;
#X obj 1665 697 knob 50 0 1 0 0 empty empty #E4E4E4 #B7B7B7 #4D4D4D 1 0 0 0 1 270 0 0 0;
#X floatatom 1411 809 5 0 0 0 - - - 12;
#X floatatom 1531 809 5 0 0 0 - - - 12;
#X obj 1326 866 brown~;
#X obj 1397 918 bob~;
#X obj 1411 765 rand.i 900 2500;
#X obj 1531 765 rand.i 900 2500;
#X obj 1411 544 bng 25 250 50 0 empty empty empty 17 7 0 10 #e4e4e4 #4d4d4d #373737;
#X msg 1312 659 stop;
#X obj 1411 712 metro 50;
#X msg 1615 615 0.4;
#X msg 1667 615 0;
#X obj 1312 617 delay 4000;
#X obj 1397 1035 dac~ 4;
#X obj 317 677 *~;
#X msg 385 686 10;
#X obj 1146 676 *~;
#X msg 1214 685 0.025;
#X msg 399 650 loadbang;
#X msg 1227 630 loadbang;
#X obj 327 650 r volume_on;
#X obj 1210 586 r volume_on;
#X connect 0 0 43 0;
#X connect 1 0 16 0;
#X connect 2 0 17 0;
#X connect 3 0 19 0;
#X connect 4 0 10 0;
#X connect 4 0 12 0;
#X connect 5 0 6 0;
#X connect 6 0 8 0;
#X connect 7 0 45 0;
#X connect 8 0 7 0;
#X connect 10 0 9 0;
#X connect 11 0 12 0;
#X connect 12 0 7 1;
#X connect 13 0 14 0;
#X connect 13 0 11 0;
#X connect 14 0 1 0;
#X connect 14 0 5 0;
#X connect 15 0 2 0;
#X connect 15 0 5 0;
#X connect 16 0 15 0;
#X connect 17 0 18 0;
#X connect 18 0 3 0;
#X connect 18 0 5 0;
#X connect 19 0 4 0;
#X connect 21 0 13 0;
#X connect 21 1 34 0;
#X connect 22 0 43 0;
#X connect 23 0 37 0;
#X connect 24 0 38 0;
#X connect 25 0 40 0;
#X connect 26 0 31 0;
#X connect 26 0 33 0;
#X connect 27 0 28 0;
#X connect 28 0 41 0;
#X connect 29 0 62 0;
#X connect 31 0 30 0;
#X connect 32 0 33 0;
#X connect 33 0 29 1;
#X connect 34 0 35 0;
#X connect 34 0 32 0;
#X connect 35 0 23 0;
#X connect 35 0 27 0;
#X connect 36 0 24 0;
#X connect 36 0 27 0;
#X connect 37 0 36 0;
#X connect 38 0 39 0;
#X connect 39 0 25 0;
#X connect 39 0 27 0;
#X connect 40 0 26 0;
#X connect 41 0 29 0;
#X connect 43 0 20 0;
#X connect 43 0 21 0;
#X connect 44 0 45 1;
#X connect 44 1 45 2;
#X connect 45 0 80 0;
#X connect 46 0 60 0;
#X connect 47 0 46 1;
#X connect 48 0 51 1;
#X connect 49 0 51 2;
#X connect 50 0 51 0;
#X connect 51 0 46 0;
#X connect 52 0 48 0;
#X connect 53 0 49 0;
#X connect 54 0 56 0;
#X connect 54 0 57 0;
#X connect 54 0 59 0;
#X connect 55 0 58 0;
#X connect 55 0 56 0;
#X connect 56 0 52 0;
#X connect 56 0 53 0;
#X connect 57 0 47 0;
#X connect 58 0 47 0;
#X connect 59 0 55 0;
#X connect 62 0 82 0;
#X connect 64 0 62 1;
#X connect 64 1 62 2;
#X connect 65 0 79 0;
#X connect 66 0 65 1;
#X connect 67 0 70 1;
#X connect 68 0 70 2;
#X connect 69 0 70 0;
#X connect 70 0 65 0;
#X connect 71 0 67 0;
#X connect 72 0 68 0;
#X connect 73 0 75 0;
#X connect 73 0 76 0;
#X connect 73 0 78 0;
#X connect 74 0 77 0;
#X connect 74 0 75 0;
#X connect 75 0 71 0;
#X connect 75 0 72 0;
#X connect 76 0 66 0;
#X connect 77 0 66 0;
#X connect 78 0 74 0;
#X connect 80 0 61 0;
#X connect 81 0 80 1;
#X connect 82 0 63 0;
#X connect 83 0 82 1;
#X connect 84 0 81 0;
#X connect 85 0 83 0;
#X connect 86 0 81 0;
#X connect 87 0 83 0;
