#N canvas 4 100 2880 1440 12;
#X obj 122 54 inlet;
#X floatatom 177 146 5 0 0 0 - - - 12;
#X obj 19 129 bng 25 250 50 0 empty empty empty 17 7 0 10 #e4e4e4 #4d4d4d #373737;
#X obj 122 358 bng 25 250 50 0 empty empty empty 17 7 0 10 #e4e4e4 #4d4d4d #373737;
#X obj 122 459 bng 25 250 50 0 empty empty empty 17 7 0 10 #e4e4e4 #4d4d4d #373737;
#X obj 122 553 bng 25 250 50 0 empty empty empty 17 7 0 10 #e4e4e4 #4d4d4d #373737;
#X msg 124 619 0;
#X floatatom 307 352 5 0 0 0 - - - 12;
#X obj 307 384 mtof;
#X obj 307 540 *~;
#X obj 122 725 outlet;
#X obj 122 660 bng 25 250 50 0 empty empty empty 17 7 0 10 #e4e4e4 #4d4d4d #373737;
#X msg 382 260 0.5;
#X obj 452 405 knob 37 0 1 0 0 empty empty #E4E4E4 #B7B7B7 #4D4D4D 1 0 0 0 1 270 0 0 0;
#X obj 122 264 bng 25 250 50 0 empty empty empty 17 7 0 10 #e4e4e4 #4d4d4d #373737;
#X msg 122 327 57;
#X msg 122 431 55;
#X obj 122 397 delay 150;
#X obj 122 493 delay 150;
#X msg 122 525 64;
#X obj 122 588 delay 300;
#X obj 307 494 bl.saw~;
#X obj 882 358 bng 25 250 50 0 empty empty empty 17 7 0 10 #e4e4e4 #4d4d4d #373737;
#X obj 882 459 bng 25 250 50 0 empty empty empty 17 7 0 10 #e4e4e4 #4d4d4d #373737;
#X obj 882 553 bng 25 250 50 0 empty empty empty 17 7 0 10 #e4e4e4 #4d4d4d #373737;
#X msg 884 619 0;
#X floatatom 1067 352 5 0 0 0 - - - 12;
#X obj 1067 384 mtof;
#X obj 1067 540 *~;
#X obj 882 704 outlet;
#X obj 882 660 bng 25 250 50 0 empty empty empty 17 7 0 10 #e4e4e4 #4d4d4d #373737;
#X msg 1142 260 0.5;
#X obj 1212 405 knob 37 0 1 0 0 empty empty #E4E4E4 #B7B7B7 #4D4D4D 1 0 0 0 1 270 0 0 0;
#X obj 882 260 bng 25 250 50 0 empty empty empty 17 7 0 10 #e4e4e4 #4d4d4d #373737;
#X msg 882 327 57;
#X msg 882 431 55;
#X obj 882 397 delay 150;
#X obj 882 493 delay 150;
#X msg 882 525 64;
#X obj 882 588 delay 300;
#X obj 1067 499 bl.square~;
#X text 534 145 if speaker 3 is dead \, speaker 4 takes over;
#X obj 122 162 sel 3;
#X obj 122 112 value speaker3;
#X obj 534 358 FearThresholdSearchingSpeaker3;
#X obj 307 718 dac~ 3;
#X obj 1067 718 dac~ 4;
#X obj 307 619 crusher~ 0 0;
#X obj 536 967 *~;
#X obj 804 693 knob 50 0 1 0 0 empty empty #E4E4E4 #B7B7B7 #4D4D4D 1 0 0 0 1 270 0 0 0;
#X floatatom 550 805 5 0 0 0 - - - 12;
#X floatatom 670 805 5 0 0 0 - - - 12;
#X obj 465 862 brown~;
#X obj 536 914 bob~;
#X obj 550 761 rand.i 900 2500;
#X obj 670 761 rand.i 900 2500;
#X obj 550 540 bng 25 250 50 0 empty empty empty 17 7 0 10 #e4e4e4 #4d4d4d #373737;
#X msg 451 655 stop;
#X obj 550 708 metro 50;
#X msg 754 611 0.4;
#X msg 806 611 0;
#X obj 451 613 delay 4000;
#X obj 1067 635 crusher~ 0 0;
#X obj 1321 358 FearThresholdSearchingSpeaker4;
#X obj 1353 952 *~;
#X obj 1621 678 knob 50 0 1 0 0 empty empty #E4E4E4 #B7B7B7 #4D4D4D 1 0 0 0 1 270 0 0 0;
#X floatatom 1367 790 5 0 0 0 - - - 12;
#X floatatom 1487 790 5 0 0 0 - - - 12;
#X obj 1282 847 brown~;
#X obj 1353 899 bob~;
#X obj 1367 746 rand.i 900 2500;
#X obj 1487 746 rand.i 900 2500;
#X obj 1367 525 bng 25 250 50 0 empty empty empty 17 7 0 10 #e4e4e4 #4d4d4d #373737;
#X msg 1268 640 stop;
#X obj 1367 693 metro 50;
#X msg 1571 596 0.4;
#X msg 1623 596 0;
#X obj 1268 598 delay 4000;
#X obj 536 1031 dac~ 3;
#X obj 1353 1016 dac~ 4;
#X obj 305 680 *~;
#X msg 347 667 0.015;
#X obj 1070 682 *~;
#X msg 1125 669 0.025;
#X msg 393 640 loadbang;
#X msg 1173 629 loadbang;
#X obj 384 745 r volume_on;
#X obj 1125 757 r volume_on;
#X connect 0 0 43 0;
#X connect 2 0 43 0;
#X connect 3 0 17 0;
#X connect 4 0 18 0;
#X connect 5 0 20 0;
#X connect 6 0 11 0;
#X connect 6 0 13 0;
#X connect 7 0 8 0;
#X connect 8 0 21 0;
#X connect 9 0 47 0;
#X connect 11 0 10 0;
#X connect 12 0 13 0;
#X connect 13 0 9 1;
#X connect 14 0 15 0;
#X connect 14 0 12 0;
#X connect 15 0 3 0;
#X connect 15 0 7 0;
#X connect 16 0 4 0;
#X connect 16 0 7 0;
#X connect 17 0 16 0;
#X connect 18 0 19 0;
#X connect 19 0 5 0;
#X connect 19 0 7 0;
#X connect 20 0 6 0;
#X connect 21 0 9 0;
#X connect 22 0 36 0;
#X connect 23 0 37 0;
#X connect 24 0 39 0;
#X connect 25 0 30 0;
#X connect 25 0 32 0;
#X connect 26 0 27 0;
#X connect 27 0 40 0;
#X connect 28 0 62 0;
#X connect 30 0 29 0;
#X connect 31 0 32 0;
#X connect 32 0 28 1;
#X connect 33 0 34 0;
#X connect 33 0 31 0;
#X connect 34 0 22 0;
#X connect 34 0 26 0;
#X connect 35 0 23 0;
#X connect 35 0 26 0;
#X connect 36 0 35 0;
#X connect 37 0 38 0;
#X connect 38 0 24 0;
#X connect 38 0 26 0;
#X connect 39 0 25 0;
#X connect 40 0 28 0;
#X connect 42 0 14 0;
#X connect 42 1 33 0;
#X connect 43 0 1 0;
#X connect 43 0 42 0;
#X connect 44 0 47 1;
#X connect 44 1 47 2;
#X connect 47 0 80 0;
#X connect 48 0 78 0;
#X connect 49 0 48 1;
#X connect 50 0 53 1;
#X connect 51 0 53 2;
#X connect 52 0 53 0;
#X connect 53 0 48 0;
#X connect 54 0 50 0;
#X connect 55 0 51 0;
#X connect 56 0 58 0;
#X connect 56 0 59 0;
#X connect 56 0 61 0;
#X connect 57 0 60 0;
#X connect 57 0 58 0;
#X connect 58 0 54 0;
#X connect 58 0 55 0;
#X connect 59 0 49 0;
#X connect 60 0 49 0;
#X connect 61 0 57 0;
#X connect 62 0 82 0;
#X connect 63 0 62 1;
#X connect 63 1 62 2;
#X connect 64 0 79 0;
#X connect 65 0 64 1;
#X connect 66 0 69 1;
#X connect 67 0 69 2;
#X connect 68 0 69 0;
#X connect 69 0 64 0;
#X connect 70 0 66 0;
#X connect 71 0 67 0;
#X connect 72 0 74 0;
#X connect 72 0 75 0;
#X connect 72 0 77 0;
#X connect 73 0 76 0;
#X connect 73 0 74 0;
#X connect 74 0 70 0;
#X connect 74 0 71 0;
#X connect 75 0 65 0;
#X connect 76 0 65 0;
#X connect 77 0 73 0;
#X connect 80 0 45 0;
#X connect 81 0 80 1;
#X connect 82 0 46 0;
#X connect 83 0 82 1;
#X connect 84 0 81 0;
#X connect 85 0 83 0;
#X connect 86 0 81 0;
#X connect 87 0 83 0;
