#N canvas 827 239 527 327 12;
#X obj 426 363 bng 25 250 50 0 empty empty empty 17 7 0 10 #e4e4e4 #4d4d4d #373737;
#X obj 426 551 count 1 3;
#X floatatom 426 606 5 0 0 0 - - - 12;
#X msg 426 193 stop;
#X obj 344 461 Hello1;
#X obj 426 461 Hello2;
#X obj 465 708 send seeu3;
#X obj 762 606 send stophello12;
#X obj 505 606 send stophello3;
#X obj 683 169 receive stophello3;
#X obj 683 461 Hello3;
#X obj 683 363 bng 25 250 50 0 empty empty empty 17 7 0 10 #e4e4e4 #4d4d4d #373737;
#X obj 683 551 count 1 3;
#X floatatom 683 606 5 0 0 0 - - - 12;
#X obj 722 708 send seeu12;
#X msg 683 193 stop;
#X msg 1551 394 reset;
#X obj 426 300 metro 1000;
#X obj 683 300 metro 1000;
#X obj 949 363 bng 25 250 50 0 empty empty empty 17 7 0 10 #e4e4e4 #4d4d4d #373737;
#X obj 949 633 count 1 2;
#X floatatom 949 696 5 0 0 0 - - - 12;
#X obj 988 727 tgl 25 0 empty empty empty 17 7 0 10 #e4e4e4 #4d4d4d #373737 0 1;
#X msg 991 696 1;
#X obj 988 766 sel 1 0;
#X obj 988 853 delay 1000;
#X obj 1011 572 delay 1000;
#X obj 885 461 SeeU1;
#X obj 988 819 rand.i 1500 3000;
#X obj 949 461 SeeU2;
#X obj 988 883 send seeu3;
#X obj 870 883 send stophello3;
#X obj 1219 367 bng 25 250 50 0 empty empty empty 17 7 0 10 #e4e4e4 #4d4d4d #373737;
#X obj 1219 633 count 1 2;
#X floatatom 1219 696 5 0 0 0 - - - 12;
#X obj 1258 760 tgl 25 0 empty empty empty 17 7 0 10 #e4e4e4 #4d4d4d #373737 0 1;
#X msg 1261 696 1;
#X obj 1258 799 sel 1 0;
#X obj 1258 886 delay 1000;
#X obj 1284 572 delay 1000;
#X obj 1258 852 rand.i 1500 3000;
#X obj 949 169 receive seeu12;
#X obj 1219 169 receive seeu3;
#X obj 1219 455 SeeU3;
#X obj 1258 916 send seeu12;
#X obj 1135 916 send stophello12;
#X obj 426 169 receive stophello12;
#X obj 1618 461 receive stopseeu;
#X msg 1618 492 stop;
#X obj 1606 585 cnv 15 235 427 empty empty empty 20 12 0 14 #0071b7 #373737 0;
#X floatatom 1627 595 5 0 0 0 - - - 12;
#X floatatom 1683 595 5 0 0 0 - - - 12;
#X obj 1683 636 t b f;
#X obj 1683 680 +;
#X floatatom 1683 712 5 0 0 0 - - - 12;
#X obj 1683 742 sel 2;
#X obj 1698 936 bng 25 250 50 0 empty empty empty 17 7 0 10 #e4e4e4 #4d4d4d #373737;
#X obj 1698 979 send stopseeu;
#X obj 1698 903 metro 100;
#X obj 1732 936 count 1 5;
#X msg 1768 870 stop;
#X msg 1626 940 0;
#X obj 1685 784 t b b;
#X obj 1717 828 send startphase3;
#X obj 168 90 bng 25 250 50 0 empty empty empty 17 7 0 10 #e4e4e4 #4d4d4d #373737;
#X obj 218 179 delay;
#X obj 76 212 delay;
#X obj 465 676 delay;
#X obj 722 676 delay;
#X obj 76 141 rand.i 1500 3000;
#X obj 218 141 rand.i 3000 5000;
#X obj 479 261 rand.i 3000 8000;
#X obj 736 256 rand.i 3000 8000;
#X obj 465 646 rand.i 1500 3000;
#X obj 722 646 rand.i 1500 3000;
#X obj 1011 421 rand.i 2500 5000;
#X obj 1284 421 rand.i 2500 5000;
#X obj 2079 835 bng 25 250 50 0 empty empty empty 17 7 0 10 #e4e4e4 #4d4d4d #373737;
#X obj 2376 879 print;
#X obj 2153 1021 delay 2500;
#X obj 2079 785 receive startphase3;
#X obj 1941 922 FoundEachother123;
#X msg 2376 823 found eachother123;
#X obj 2153 1054 outlet;
#X obj 168 46 inlet;
#X obj 1941 895 delay 750;
#X obj 2079 916 CheckRemainingSpeakers;
#X obj 2079 955 sel 3 4;
#X obj 2039 1054 outlet;
#X text 1844 1035 If only 3 speakers are alive \, dont start a searching phase with 4 speakers, f 25;
#X text 2268 1020 If all speakers are alive \, proceed to the searching phase with 4 speakers, f 20;
#X obj 2039 1021 delay 2500;
#X text 185 454 this can cause issues;
#X connect 0 0 5 0;
#X connect 0 0 4 0;
#X connect 1 0 2 0;
#X connect 1 1 8 0 32.................R....fB...fD....n....PB....;
#X connect 1 1 73 0;
#X connect 3 0 17 0;
#X connect 5 0 1 0;
#X connect 5 1 1 0;
#X connect 9 0 15 0;
#X connect 10 0 12 0;
#X connect 10 1 12 0;
#X connect 11 0 10 0;
#X connect 12 0 13 0;
#X connect 12 1 7 0 32.................R....fB...fD....n....PB....;
#X connect 12 1 74 0;
#X connect 15 0 18 0;
#X connect 16 0 1 0 32..................B...f39++Of....Ht+++KI....;
#X connect 16 0 20 0 32..................B...LY+++Of....S1+++GO....;
#X connect 16 0 33 0 32..................B...Dp+++Of....g5+++GO....;
#X connect 16 0 12 0 64..................B...fq+++Of....35+++CH....K9+++.B...vh+++Of....Ix+++CH...Ph7+++RB....;
#X connect 17 0 0 0;
#X connect 17 0 71 0 48.................M....rA...PC....a....76+++eM....+9+++WC...vw++++;
#X connect 18 0 11 0;
#X connect 18 0 72 0 48.................R....rA...fD....a....T6+++eM....09+++WC...fv++++;
#X connect 19 0 75 0 32.................Q....3C...PD....9....DB....;
#X connect 19 0 29 0;
#X connect 19 0 27 0 32.................k....D7+++eI....A++++mD....;
#X connect 20 0 21 0;
#X connect 20 1 23 0;
#X connect 22 0 24 0 32.................M....n8+++eC....Z++++mA....;
#X connect 22 0 50 0 64.................F....rF...fA....qA...X....fpA...F....nZ...fT+++++I...H0++++eB...j8+++C;
#X connect 23 0 22 0;
#X connect 24 0 28 0;
#X connect 24 0 31 0 32.................K....L9++++B....i++++qD....;
#X connect 25 0 30 0;
#X connect 26 0 19 0 48.................V....39+++uE....t++++yv++++v++++L7+++O7+++eG++++;
#X connect 28 0 25 0;
#X connect 29 0 20 0;
#X connect 29 1 20 0;
#X connect 32 0 43 0;
#X connect 32 0 76 0 32.................O....vD...vC....LA...zA....;
#X connect 33 0 34 0;
#X connect 33 1 36 0;
#X connect 35 0 37 0 32.................M....n8+++eC....Z++++mA....;
#X connect 35 0 51 0 48.................H....XK....B....1B...Tx+++epA...k7+++mZ...vP++++;
#X connect 36 0 35 0;
#X connect 37 0 40 0;
#X connect 37 0 45 0 32.................S....z6++++D....89++++M....;
#X connect 38 0 44 0;
#X connect 39 0 32 0 48.................V....v9+++uE....r++++Kw+++Ov++++R7+++C7+++eH++++;
#X connect 40 0 38 0;
#X connect 41 0 19 0;
#X connect 42 0 32 0;
#X connect 43 0 33 0;
#X connect 43 1 33 0;
#X connect 46 0 3 0;
#X connect 47 0 48 0;
#X connect 47 0 16 0;
#X connect 48 0 26 0 32.................r....HZ+++OK....h1+++2C....;
#X connect 48 0 39 0 32.................a....Lq++++F....y5+++2C....;
#X connect 48 0 25 0 32.................NE...rX+++uSA...K1+++aU....;
#X connect 48 0 38 0 32.................vE...jo+++ObA...Y5+++eW....;
#X connect 50 0 53 0 32.................y....fC...vL....3....LD....;
#X connect 51 0 52 0;
#X connect 52 0 53 0;
#X connect 52 1 53 1;
#X connect 53 0 54 0;
#X connect 54 0 55 0;
#X connect 55 0 62 0;
#X connect 56 0 57 0;
#X connect 56 0 61 0;
#X connect 58 0 56 0;
#X connect 58 0 59 0;
#X connect 59 1 60 0 48.................K....LC...vB....y....P5+++u+++++j9+++6++++Oq++++;
#X connect 60 0 58 0;
#X connect 61 0 35 0;
#X connect 61 0 22 0;
#X connect 62 0 63 0;
#X connect 62 1 58 0;
#X connect 64 0 69 0;
#X connect 64 0 70 0;
#X connect 65 0 18 0 32.................h....Dc...fH....QG...XF....;
#X connect 66 0 17 0 32.................i....3U...vH....dE...TD....;
#X connect 67 0 6 0;
#X connect 68 0 14 0;
#X connect 69 0 66 0;
#X connect 70 0 65 0;
#X connect 71 0 17 1;
#X connect 72 0 18 1;
#X connect 73 0 67 0;
#X connect 74 0 68 0;
#X connect 75 0 26 0;
#X connect 76 0 39 0;
#X connect 77 0 82 0;
#X connect 77 0 85 0;
#X connect 77 0 86 0;
#X connect 79 0 83 0;
#X connect 80 0 77 0;
#X connect 82 0 78 0;
#X connect 84 0 64 0;
#X connect 85 0 81 0;
#X connect 86 0 87 0;
#X connect 87 0 91 0;
#X connect 87 1 79 0;
#X connect 91 0 88 0;
