#N canvas 4 100 2880 1440 12;
#X text 513 135 speaker 1&2;
#X text 763 141 speaker 3;
#X obj 506 475 bng 25 250 50 0 empty empty empty 17 7 0 10 #e4e4e4 #4d4d4d #373737;
#X obj 506 663 count 1 3;
#X floatatom 506 718 5 0 0 0 - - - 12;
#X msg 506 305 stop;
#X obj 385 573 Hello1;
#X obj 446 573 Hello2;
#X obj 763 475 bng 25 250 50 0 empty empty empty 17 7 0 10 #e4e4e4 #4d4d4d #373737;
#X obj 763 663 count 1 3;
#X floatatom 763 718 5 0 0 0 - - - 12;
#X msg 763 305 stop;
#X msg 1631 506 reset;
#X obj 506 412 metro 1000;
#X obj 763 412 metro 1000;
#X obj 1029 475 bng 25 250 50 0 empty empty empty 17 7 0 10 #e4e4e4 #4d4d4d #373737;
#X obj 1029 745 count 1 2;
#X floatatom 1029 808 5 0 0 0 - - - 12;
#X obj 1068 839 tgl 25 0 empty empty empty 17 7 0 10 #e4e4e4 #4d4d4d #373737 0 1;
#X msg 1071 808 1;
#X obj 1068 878 sel 1 0;
#X obj 1068 965 delay 1000;
#X obj 1091 684 delay 1000;
#X obj 916 571 SeeU1;
#X obj 1068 931 rand.i 1500 3000;
#X obj 975 571 SeeU2;
#X obj 1299 479 bng 25 250 50 0 empty empty empty 17 7 0 10 #e4e4e4 #4d4d4d #373737;
#X obj 1299 745 count 1 2;
#X floatatom 1299 808 5 0 0 0 - - - 12;
#X obj 1338 872 tgl 25 0 empty empty empty 17 7 0 10 #e4e4e4 #4d4d4d #373737 0 1;
#X msg 1341 808 1;
#X obj 1338 911 sel 1 0;
#X obj 1338 998 delay 1000;
#X obj 1364 684 delay 1000;
#X obj 1338 964 rand.i 1500 3000;
#X msg 1698 604 stop;
#X obj 1686 697 cnv 15 235 427 empty empty empty 20 12 0 14 #0071b7 #373737 0;
#X floatatom 1707 707 5 0 0 0 - - - 12;
#X floatatom 1763 707 5 0 0 0 - - - 12;
#X obj 1763 748 t b f;
#X obj 1763 792 +;
#X floatatom 1763 824 5 0 0 0 - - - 12;
#X obj 1763 854 sel 2;
#X obj 1778 1048 bng 25 250 50 0 empty empty empty 17 7 0 10 #e4e4e4 #4d4d4d #373737;
#X obj 1778 1015 metro 100;
#X obj 1812 1048 count 1 5;
#X msg 1848 982 stop;
#X msg 1706 1052 0;
#X obj 1765 896 t b b;
#X obj 1832 1261 print;
#X obj 248 202 bng 25 250 50 0 empty empty empty 17 7 0 10 #e4e4e4 #4d4d4d #373737;
#X text 1029 141 see you 1 & 2;
#X text 1299 141 see you 3;
#X obj 156 253 rand.i 1500 4000;
#X obj 298 253 rand.i 1500 4000;
#X obj 298 291 delay;
#X obj 156 324 delay;
#X obj 545 788 delay;
#X obj 802 788 delay;
#X obj 506 573 Hello3;
#X obj 763 573 Hello4;
#X obj 1029 573 SeeU3;
#X obj 1299 567 SeeU4;
#X obj 585 718 send stophello4;
#X obj 842 718 send stophello123;
#X obj 545 820 send seeu4;
#X obj 802 820 send seeu123;
#X obj 506 281 receive stophello123;
#X obj 763 281 receive stophello4;
#X obj 1029 281 receive seeu123;
#X obj 1299 281 receive seeu4;
#X obj 950 995 send stophello4;
#X obj 1068 995 send seeu4;
#X obj 1199 1028 send stophello123;
#X obj 1338 1028 send seeu123;
#X obj 1778 1091 send stopseeu1234;
#X obj 1698 573 receive stopseeu1234;
#X obj 1797 940 send startphase4;
#X obj 1649 1161 receive startphase4;
#X obj 559 373 rand.i 3000 8000;
#X obj 816 368 rand.i 3000 8000;
#X obj 545 758 rand.i 1500 3000;
#X obj 802 758 rand.i 1500 3000;
#X obj 1091 533 rand.i 2500 5000;
#X obj 1364 533 rand.i 2500 5000;
#X obj 1492 1284 FoundEachother1234;
#X msg 1832 1222 foundeachother1234;
#X obj 248 135 inlet;
#X obj 1649 1305 delay 2500;
#X obj 1649 1338 outlet;
#X obj 1492 1222 delay 750;
#X connect 2 0 6 0;
#X connect 2 0 7 0;
#X connect 2 0 59 0;
#X connect 3 0 4 0;
#X connect 3 1 63 0;
#X connect 3 1 81 0;
#X connect 5 0 13 0;
#X connect 8 0 60 0;
#X connect 9 0 10 0;
#X connect 9 1 64 0;
#X connect 9 1 82 0;
#X connect 11 0 14 0;
#X connect 12 0 3 0;
#X connect 12 0 16 0;
#X connect 12 0 27 0;
#X connect 12 0 9 0;
#X connect 13 0 2 0;
#X connect 13 0 79 0;
#X connect 14 0 8 0;
#X connect 14 0 80 0;
#X connect 15 0 23 0;
#X connect 15 0 25 0;
#X connect 15 0 83 0;
#X connect 15 0 61 0;
#X connect 16 0 17 0;
#X connect 16 1 19 0;
#X connect 18 0 20 0;
#X connect 18 0 37 0;
#X connect 19 0 18 0;
#X connect 20 0 24 0;
#X connect 20 0 71 0;
#X connect 21 0 72 0;
#X connect 22 0 15 0;
#X connect 24 0 21 0;
#X connect 26 0 62 0;
#X connect 26 0 84 0;
#X connect 27 0 28 0;
#X connect 27 1 30 0;
#X connect 29 0 31 0;
#X connect 29 0 38 0;
#X connect 30 0 29 0;
#X connect 31 0 34 0;
#X connect 31 0 73 0;
#X connect 32 0 74 0;
#X connect 33 0 26 0;
#X connect 34 0 32 0;
#X connect 35 0 22 0;
#X connect 35 0 33 0;
#X connect 35 0 21 0;
#X connect 35 0 32 0;
#X connect 37 0 40 0;
#X connect 38 0 39 0;
#X connect 39 0 40 0;
#X connect 39 1 40 1;
#X connect 40 0 41 0;
#X connect 41 0 42 0;
#X connect 42 0 48 0;
#X connect 43 0 47 0;
#X connect 43 0 75 0;
#X connect 44 0 43 0;
#X connect 44 0 45 0;
#X connect 45 1 46 0;
#X connect 46 0 44 0;
#X connect 47 0 29 0;
#X connect 47 0 18 0;
#X connect 48 0 77 0;
#X connect 48 1 44 0;
#X connect 50 0 53 0;
#X connect 50 0 54 0;
#X connect 53 0 56 0;
#X connect 54 0 55 0;
#X connect 55 0 14 0;
#X connect 56 0 13 0;
#X connect 57 0 65 0;
#X connect 58 0 66 0;
#X connect 59 0 3 0;
#X connect 59 1 3 0;
#X connect 60 0 9 0;
#X connect 61 0 16 0;
#X connect 62 0 27 0;
#X connect 67 0 5 0;
#X connect 68 0 11 0;
#X connect 69 0 15 0;
#X connect 70 0 26 0;
#X connect 76 0 35 0;
#X connect 76 0 12 0;
#X connect 78 0 86 0;
#X connect 78 0 88 0;
#X connect 78 0 90 0;
#X connect 79 0 13 1;
#X connect 80 0 14 1;
#X connect 81 0 57 0;
#X connect 82 0 58 0;
#X connect 83 0 22 0;
#X connect 84 0 33 0;
#X connect 86 0 49 0;
#X connect 87 0 50 0;
#X connect 88 0 89 0;
#X connect 90 0 85 0;
