#N canvas 827 239 527 327 12;
#X obj 252 267 hsl 128 15 1 200 0 0 empty empty empty -2 -8 0 10 #dcdcdc #000000 #000000 0 1;
#X floatatom 233 316 12 0 0 0 - - - 16;
#X msg 233 351 speed \$1;
#X msg 89 444 pause;
#X msg 223 441 continue;
#X msg 227 96 120;
#X msg 280 164 180;
#X msg 113 214 100, f 6;
#X obj 25 489 bng 25 250 50 0 empty empty empty 17 7 0 10 #e4e4e4 #4d4d4d #373737;
#X msg 305 198 200;
#X msg 255 130 150;
#X obj 113 -12 inlet;
#X obj 204 -10 inlet;
#X obj 268 -10 inlet;
#X obj 331 -10 inlet;
#X obj 398 -10 inlet;
#X obj 23 556 outlet;
#X obj 234 556 outlet;
#X obj 350 556 outlet;
#X obj 89 556 outlet;
#X obj 166 556 outlet;
#X obj 96 350 send play_speed-C;
#X obj 66 402 fear_pause_calculation_trumpet2;
#X obj 446 556 outlet;
#X obj 25 450 delay 50;
#X obj 349 113 spigot;
#X obj 512 22 tgl 25 0 empty empty empty 17 7 0 10 #e4e4e4 #4d4d4d #373737 0 1;
#X obj 311 82 spigot;
#X obj 266 55 spigot;
#X obj 212 42 spigot;
#X obj 512 -9 r on/off_trumpet2;
#X connect 0 0 1 0;
#X connect 1 0 2 0;
#X connect 1 0 21 0;
#X connect 2 0 18 0;
#X connect 3 0 19 0;
#X connect 4 0 17 0;
#X connect 5 0 0 0;
#X connect 6 0 0 0;
#X connect 7 0 0 0;
#X connect 8 0 16 0;
#X connect 9 0 0 0;
#X connect 10 0 0 0;
#X connect 11 0 7 0;
#X connect 12 0 29 0;
#X connect 13 0 28 0;
#X connect 14 0 27 0;
#X connect 15 0 25 0;
#X connect 22 0 3 0;
#X connect 22 0 24 0;
#X connect 22 1 20 0;
#X connect 22 2 4 0;
#X connect 22 3 23 0;
#X connect 24 0 8 0;
#X connect 25 0 9 0;
#X connect 26 0 25 1;
#X connect 26 0 29 1;
#X connect 26 0 28 1;
#X connect 26 0 27 1;
#X connect 27 0 6 0;
#X connect 28 0 10 0;
#X connect 29 0 5 0;
#X connect 30 0 26 0;
