#N canvas 1429 0 1436 1425 12;
#X text 155 3593 alle found eachother patches;
#X text 72 1443 death sound patches;
#X text 3291 -596 We need a total death counter and a specific death counter;
#X text 3291 -557 If a certain speaker is dead \, change a variable so that speaker 4 can take over that speaker's role (already programmed for when there are 3 speakers alive), f 51;
#X text 3291 -489 If 2 speakers are dead \, have the remaining 2 speakers go into a searching phase. The logic for this phase is on the right of this comment. Keep track of TOTAL deaths by using another variable and one more variable to know which speakers are dead., f 51;
#X text 3291 -387 an abstraction containing all of the Hello and SeeU code for each speaker will be used to play the sound., f 50;
#X text 155 3643 speaker 1 en 2;
#X obj 86 1593 Death1;
#X obj 86 1551 bng 25 250 50 0 empty empty empty 17 7 0 10 #e4e4e4 #4d4d4d #373737;
#X obj 240 1593 Death2;
#X obj 240 1551 bng 25 250 50 0 empty empty empty 17 7 0 10 #e4e4e4 #4d4d4d #373737;
#X obj 391 1551 bng 25 250 50 0 empty empty empty 17 7 0 10 #e4e4e4 #4d4d4d #373737;
#X obj 391 1593 Death3;
#X obj 509 1551 bng 25 250 50 0 empty empty empty 17 7 0 10 #e4e4e4 #4d4d4d #373737;
#X obj 509 1593 Death4;
#X obj 155 3774 FoundEachother;
#X obj 360 3774 FoundEachother123;
#X obj 584 3774 FoundEachother1234;
#X obj 155 3713 bng 25 250 50 0 empty empty empty 17 7 0 10 #e4e4e4 #4d4d4d #373737;
#X obj 360 3713 bng 25 250 50 0 empty empty empty 17 7 0 10 #e4e4e4 #4d4d4d #373737;
#X obj 584 3713 bng 25 250 50 0 empty empty empty 17 7 0 10 #e4e4e4 #4d4d4d #373737;
#X obj 505 461 SpeakerSearchPhase1;
#X obj 505 415 bng 25 250 50 0 empty empty empty 17 7 0 10 #e4e4e4 #4d4d4d #373737;
#X obj 505 501 bng 25 250 50 0 empty empty empty 17 7 0 10 #e4e4e4 #4d4d4d #373737;
#X text 400 86 In this phase \, 2 speakers look for eachother. Initially \, the speakers are speaker 1 and 2 \, but if one of those speakers are killed \, speaker 4 will take over their role, f 42;
#X obj 918 471 SpeakerSearchPhase2;
#X obj 918 425 bng 25 250 50 0 empty empty empty 17 7 0 10 #e4e4e4 #4d4d4d #373737;
#X obj 1038 511 bng 25 250 50 0 empty empty empty 17 7 0 10 #e4e4e4 #4d4d4d #373737;
#X obj 1491 471 SpeakerSearchPhase3;
#X obj 1491 511 bng 25 250 50 0 empty empty empty 17 7 0 10 #e4e4e4 #4d4d4d #373737;
#X obj 1491 425 bng 25 250 50 0 empty empty empty 17 7 0 10 #e4e4e4 #4d4d4d #373737;
#X text 1353 343 Like the previous phase \, the 3 speakers that have found eachother will look for the last \, fourth speaker together.;
#X obj 523 975 2SpeakersRemaining;
#X obj 523 1048 bng 25 250 50 0 empty empty empty 17 7 0 10 #e4e4e4 #4d4d4d #373737;
#X obj 537 717 bng 25 250 50 0 empty empty empty 17 7 0 10 #e4e4e4 #4d4d4d #373737;
#X text 430 655 When only 2 speakers are remaining \, this patch will handle the logic for those 2 finding eachother;
#X obj 984 975 1SpeakerRemaining;
#X obj 550 853 value speaker1;
#X obj 578 876 value speaker2;
#X obj 605 899 value speaker3;
#X obj 633 922 value speaker4;
#X obj 62 1301 CheckRemainingSpeakers;
#X obj 62 1258 bng 25 250 50 0 empty empty empty 17 7 0 10 #e4e4e4 #4d4d4d #373737;
#X floatatom 62 1345 5 0 0 0 - - - 12;
#X obj 371 909 CheckRemainingSpeakers;
#X obj 537 762 t b b;
#X obj 550 792 bng 25 250 50 0 empty empty empty 17 7 0 10 #e4e4e4 #4d4d4d #373737;
#X obj 996 717 bng 25 250 50 0 empty empty empty 17 7 0 10 #e4e4e4 #4d4d4d #373737;
#X obj 1009 853 value speaker1;
#X obj 1034 876 value speaker2;
#X obj 1059 899 value speaker3;
#X obj 1085 922 value speaker4;
#X obj 823 896 CheckRemainingSpeakers;
#X obj 996 762 t b b;
#X obj 1009 792 bng 25 250 50 0 empty empty empty 17 7 0 10 #e4e4e4 #4d4d4d #373737;
#X text 62 1226 this patch returns the number of alive speakers when banged;
#X text 937 655 When only one speaker is remaining \, this patch will have that speaker endlessly call out to others.;
#X obj 28 1487 receive deathspeaker1;
#X obj 176 1487 receive deathspeaker2;
#X obj 326 1487 receive deathspeaker3;
#X obj 480 1487 receive deathspeaker4;
#X text 74 341 Speaker 1:;
#X text 45 381 1 = alive;
#X text 117 381 0 = dead;
#X text 117 469 0 = dead;
#X text 108 548 0 = dead;
#X text 108 629 0 = dead;
#X text 45 469 2 = alive;
#X text 36 548 3 = alive;
#X text 36 629 4 = alive;
#X text 74 429 Speaker 2:;
#X text 65 508 Speaker 3:;
#X text 65 589 Speaker 4:;
#X obj 505 296 CheckRemainingSpeakers;
#X obj 918 511 bng 25 250 50 0 empty empty empty 17 7 0 10 #e4e4e4 #4d4d4d #373737;
#X text 891 562 start singing;
#X text 1496 567 start singing;
#X text 319 341 if only 2 speakers remain \, skip to the "2SpeakersRemaining" search phase, f 23;
#X obj 378 202 bng 25 250 50 0 empty empty empty 17 7 0 10 #e4e4e4 #4d4d4d #373737;
#X text 523 1089 start singing;
#X obj 505 342 sel 4 3 2 1;
#X obj 298 157 r startsearching;
#X obj 516 1120 s startsinging;
#X obj 891 584 s startsinging;
#X obj 1493 602 s startsinging;
#X obj 920 1342 OverzichtV2;
#X obj 987 1262 r startsinging;
#X obj 707 1183 receive deathspeaker1;
#X obj 728 1208 receive deathspeaker2;
#X obj 753 1234 receive deathspeaker3;
#X obj 766 1261 receive deathspeaker4;
#X obj 919 1416 s startsearching;
#X obj 937 185 s volume_on;
#X obj 940 135 bng 19 250 50 0 empty empty empty 0 -10 0 12 #fcfcfc #000000 #000000;
#X text 812 70 This sends a bang that intializes the volume for all the objects that make sound. (was only used because otherwise the sound would be way too loud on the speakers used during the presentation);
#X text 25 251 all the speakers have a value assigned to them which determines whether or not they have died, f 24;
#X text 848 313 In this phase \, the two speakers that found eachother in phase 1 will now look for a third speaker together. Once again \, these speakers are initially speaker 1 \, 2 and 3 \, but if any one of them have died \, speaker 4 will take their place and the final search phase will be skipped as there are only 3 speakers left;
#X text 14 6 Both the "arduinotest" and "Test1" patches need to be open for the code to function properly, f 40;
#X connect 8 0 7 0;
#X connect 10 0 9 0;
#X connect 11 0 12 0;
#X connect 13 0 14 0;
#X connect 18 0 15 0;
#X connect 19 0 16 0;
#X connect 20 0 17 0;
#X connect 21 0 23 0;
#X connect 22 0 21 0;
#X connect 23 0 26 0;
#X connect 25 0 74 0;
#X connect 25 1 27 0;
#X connect 26 0 25 0;
#X connect 27 0 30 0;
#X connect 28 0 29 0;
#X connect 29 0 84 0;
#X connect 30 0 28 0;
#X connect 32 0 33 0;
#X connect 33 0 82 0;
#X connect 34 0 45 0;
#X connect 37 0 32 1;
#X connect 38 0 32 2;
#X connect 39 0 32 3;
#X connect 40 0 32 4;
#X connect 41 0 43 0;
#X connect 42 0 41 0;
#X connect 44 0 32 0;
#X connect 45 0 44 0;
#X connect 45 1 46 0;
#X connect 46 0 37 0;
#X connect 46 0 38 0;
#X connect 46 0 39 0;
#X connect 46 0 40 0;
#X connect 47 0 53 0;
#X connect 48 0 36 1;
#X connect 49 0 36 2;
#X connect 50 0 36 3;
#X connect 51 0 36 4;
#X connect 52 0 36 0;
#X connect 53 0 52 0;
#X connect 53 1 54 0;
#X connect 54 0 48 0;
#X connect 54 0 49 0;
#X connect 54 0 50 0;
#X connect 54 0 51 0;
#X connect 57 0 8 0;
#X connect 58 0 10 0;
#X connect 59 0 11 0;
#X connect 60 0 13 0;
#X connect 73 0 80 0;
#X connect 74 0 83 0;
#X connect 78 0 73 0;
#X connect 80 0 22 0;
#X connect 80 1 22 0;
#X connect 80 2 34 0;
#X connect 80 3 47 0;
#X connect 81 0 78 0;
#X connect 85 0 91 0;
#X connect 86 0 85 4;
#X connect 87 0 85 0;
#X connect 88 0 85 1;
#X connect 89 0 85 2;
#X connect 90 0 85 3;
#X connect 93 0 92 0;
